<svg xmlns="http://www.w3.org/2000/svg" viewBox="0 0 1057.81 678.5"><defs><style>.cls-1{opacity:0.45;}.cls-2{fill:none;stroke:#f3ff71;stroke-miterlimit:10;stroke-width:0.99px;}</style></defs><title>Asset 1</title><g id="Layer_2" data-name="Layer 2"><g id="Layer_5" data-name="Layer 5"><g class="cls-1"><line class="cls-2" x1="76.16" x2="76.16" y2="678.5"/><line class="cls-2" x1="151.33" x2="151.33" y2="678.5"/><line class="cls-2" x1="226.5" x2="226.5" y2="678.5"/><line class="cls-2" x1="301.67" x2="301.67" y2="678.5"/><line class="cls-2" x1="376.83" x2="376.83" y2="678.5"/><line class="cls-2" x1="452" x2="452" y2="678.5"/><line class="cls-2" x1="527.17" x2="527.17" y2="678.5"/><line class="cls-2" x1="602.34" x2="602.34" y2="678.5"/><line class="cls-2" x1="677.51" x2="677.51" y2="678.5"/><line class="cls-2" x1="752.68" x2="752.68" y2="678.5"/><line class="cls-2" x1="827.85" x2="827.85" y2="678.5"/><line class="cls-2" x1="903.02" x2="903.02" y2="678.5"/><line class="cls-2" x1="978.19" x2="978.19" y2="678.5"/><line class="cls-2" y1="76.16" x2="1054.35" y2="76.16"/><line class="cls-2" x1="0.49" y1="151.33" x2="1054.84" y2="151.33"/><line class="cls-2" x1="0.99" y1="226.5" x2="1055.33" y2="226.5"/><line class="cls-2" x1="1.48" y1="301.67" x2="1055.83" y2="301.67"/><line class="cls-2" x1="1.98" y1="376.83" x2="1056.32" y2="376.83"/><line class="cls-2" x1="2.47" y1="452" x2="1056.82" y2="452"/><line class="cls-2" x1="2.97" y1="527.17" x2="1057.31" y2="527.17"/><line class="cls-2" x1="3.46" y1="602.34" x2="1057.81" y2="602.34"/></g></g></g></svg>