<svg xmlns="http://www.w3.org/2000/svg" viewBox="0 0 64 41.16"><defs><style>.cls-1{fill:#ff2e77;}.cls-2{fill:#009eff;}</style></defs><title>Asset 5</title><g id="Layer_2" data-name="Layer 2"><g id="Layer_5" data-name="Layer 5"><path class="cls-1" d="M24.82.8a1.31,1.31,0,0,0-1-.4H23.7a1.31,1.31,0,0,0-1,.4,1.31,1.31,0,0,0-.4,1v.11a1.31,1.31,0,0,0,.4,1,1.31,1.31,0,0,0,1,.4h.16a1.31,1.31,0,0,0,1-.4,1.31,1.31,0,0,0,.4-1V1.76A1.31,1.31,0,0,0,24.82.8Z"/><path class="cls-2" d="M20.2,17.76a.94.94,0,0,0-.67-.28,1.47,1.47,0,0,0-.31,0l-.23.05a3.7,3.7,0,0,1-1.07.16,2.48,2.48,0,0,1-1.24-.28q-.49-.28-.49-1.32v-8h3A1,1,0,0,0,20,7.77,1,1,0,0,0,20.26,7a1,1,0,0,0-1-1h-3V3.86a.54.54,0,0,0-.15-.37.47.47,0,0,0-.36-.16.67.67,0,0,0-.45.24L12.94,5.83,6.3,5.73A5.69,5.69,0,0,0,2.45,6.9a3.84,3.84,0,0,0-1.35,3,3.08,3.08,0,0,0,.73,2.15A4.57,4.57,0,0,0,3.6,13.3a20,20,0,0,0,2.6.77,13.93,13.93,0,0,1,2.23.72,1,1,0,0,1,.68.93q0,1.89-3,1.89a7.91,7.91,0,0,1-1.92-.21,10.72,10.72,0,0,1-1.71-.59A1.18,1.18,0,0,0,2,16.71a1,1,0,0,0-.75.32,1.07,1.07,0,0,0-.29.75,1,1,0,0,0,.45.88,9.91,9.91,0,0,0,4.85,1.2,5.78,5.78,0,0,0,3.8-1.12,3.52,3.52,0,0,0,1.35-2.83,3.29,3.29,0,0,0-.71-2.21A4.24,4.24,0,0,0,9,12.49a22.29,22.29,0,0,0-2.56-.79A10.62,10.62,0,0,1,4.17,11a1.23,1.23,0,0,1-.75-1.17,1.55,1.55,0,0,1,.81-1.35,4.16,4.16,0,0,1,2.25-.52l5.29.12h2v8.26q0,3.52,3.89,3.52a5.22,5.22,0,0,0,2.21-.48,1,1,0,0,0,.61-.93A.9.9,0,0,0,20.2,17.76Z"/><path class="cls-2" d="M23.76,5.86a1.14,1.14,0,0,0-.85.36,1.2,1.2,0,0,0-.35.87V18.52a1.18,1.18,0,0,0,1.2,1.2,1.21,1.21,0,0,0,.87-.35,1.14,1.14,0,0,0,.36-.85V7.09a1.19,1.19,0,0,0-1.23-1.23Z"/><path class="cls-2" d="M30.13,19a6.56,6.56,0,0,1-2.6-2.45,7.09,7.09,0,0,1-1-3.76,7.09,7.09,0,0,1,1-3.76,6.56,6.56,0,0,1,2.6-2.45,7.51,7.51,0,0,1,3.54-.85,7.39,7.39,0,0,1,2.44.36A9.21,9.21,0,0,1,38,7a1.06,1.06,0,0,1,.23,1.67.93.93,0,0,1-.71.33,1.21,1.21,0,0,1-.59-.16,10.2,10.2,0,0,0-1.51-.65A5.2,5.2,0,0,0,33.88,8a4.83,4.83,0,0,0-3.6,1.32A4.73,4.73,0,0,0,29,12.79a4.73,4.73,0,0,0,1.31,3.48,4.83,4.83,0,0,0,3.6,1.32,5.2,5.2,0,0,0,1.56-.2,10.12,10.12,0,0,0,1.51-.65,1.21,1.21,0,0,1,.59-.16.94.94,0,0,1,.71.33A1.06,1.06,0,0,1,38,18.58a9.21,9.21,0,0,1-1.91.92,7.39,7.39,0,0,1-2.44.36A7.51,7.51,0,0,1,30.13,19Z"/><path class="cls-2" d="M40.52,19.38a1.16,1.16,0,0,1-.35-.85V1.23a1.2,1.2,0,0,1,.35-.87A1.14,1.14,0,0,1,41.38,0a1.18,1.18,0,0,1,.87.36,1.18,1.18,0,0,1,.36.87v10.9l6.34-5.86a1.23,1.23,0,0,1,.8-.35,1.08,1.08,0,0,1,.89.35,1.27,1.27,0,0,1,.28.83,1.3,1.3,0,0,1-.45.91l-3.84,3.44,4.82,6.4a1.17,1.17,0,0,1,.27.72,1.11,1.11,0,0,1-.35.85,1.25,1.25,0,0,1-.88.32,1.18,1.18,0,0,1-.53-.13,1.31,1.31,0,0,1-.45-.37L44.92,13,42.6,15.09v3.44a1.14,1.14,0,0,1-.36.85,1.21,1.21,0,0,1-.87.35A1.16,1.16,0,0,1,40.52,19.38Z"/><path class="cls-2" d="M1.44,40.68a1.16,1.16,0,0,1-.35-.85V28.4a1.2,1.2,0,0,1,.35-.87,1.14,1.14,0,0,1,.85-.36,1.18,1.18,0,0,1,.87.36,1.18,1.18,0,0,1,.36.87v1.09A8.85,8.85,0,0,1,5.71,27.7,5.52,5.52,0,0,1,8.48,27a4.61,4.61,0,0,1,2.55.69,4.51,4.51,0,0,1,1.65,1.89,6,6,0,0,1,.57,2.64v7.57a1.14,1.14,0,0,1-.36.85A1.21,1.21,0,0,1,12,41a1.18,1.18,0,0,1-1.2-1.2v-7.3q0-3.25-2.93-3.25A4.24,4.24,0,0,0,5.51,30a8.64,8.64,0,0,0-2,1.87v8a1.14,1.14,0,0,1-.36.85A1.21,1.21,0,0,1,2.3,41,1.16,1.16,0,0,1,1.44,40.68Z"/><path class="cls-2" d="M17.71,40.28a6,6,0,0,1-2.39-2.49,8.54,8.54,0,0,1,0-7.38,6,6,0,0,1,2.39-2.49,7.15,7.15,0,0,1,3.6-.88,7.1,7.1,0,0,1,3.57.88,6.07,6.07,0,0,1,2.4,2.49,8.41,8.41,0,0,1,0,7.38,6.06,6.06,0,0,1-2.4,2.49,7.1,7.1,0,0,1-3.57.88A7.15,7.15,0,0,1,17.71,40.28Zm5.69-1.84a4.07,4.07,0,0,0,1.65-1.6,5.33,5.33,0,0,0,.65-2.77,5.28,5.28,0,0,0-.65-2.75,4,4,0,0,0-1.65-1.59,4.67,4.67,0,0,0-2.09-.49,4.73,4.73,0,0,0-2.12.49,3.9,3.9,0,0,0-1.64,1.59,5.37,5.37,0,0,0-.64,2.75,5.42,5.42,0,0,0,.64,2.77,4,4,0,0,0,1.64,1.6,4.62,4.62,0,0,0,2.12.51A4.57,4.57,0,0,0,23.4,38.45Z"/><path class="cls-2" d="M29.59,37.65V29.38H27.7a.5.5,0,0,1-.51-.51.56.56,0,0,1,.24-.45l3.62-3.54a.67.67,0,0,1,.45-.24.47.47,0,0,1,.36.16.54.54,0,0,1,.15.37V27.3h3a1,1,0,0,1,1,1,1,1,0,0,1-.29.73,1,1,0,0,1-.75.31H32v8q0,1,.49,1.32a2.48,2.48,0,0,0,1.24.28,3.7,3.7,0,0,0,1.07-.16l.23-.05a1.47,1.47,0,0,1,.31,0,.94.94,0,0,1,.67.28.9.9,0,0,1,.29.68,1,1,0,0,1-.61.93,5.22,5.22,0,0,1-2.21.48Q29.59,41.16,29.59,37.65Z"/><path class="cls-2" d="M54.85,41.16A5.78,5.78,0,0,0,58.65,40,3.52,3.52,0,0,0,60,37.22,3.29,3.29,0,0,0,59.29,35a4.24,4.24,0,0,0-1.69-1.21A22.29,22.29,0,0,0,55,33a10.62,10.62,0,0,1-2.32-.72A1.23,1.23,0,0,1,52,31.12a1.55,1.55,0,0,1,.81-1.35A4.16,4.16,0,0,1,55,29.25a10.22,10.22,0,0,1,3,.48,1.48,1.48,0,0,0,.35.05,1,1,0,0,0,.76-.32,1,1,0,0,0,.31-.75,1.07,1.07,0,0,0-.2-.61,1,1,0,0,0-.57-.4A11.12,11.12,0,0,0,54.85,27,5.69,5.69,0,0,0,51,28.21a3.84,3.84,0,0,0-1.35,3,3.08,3.08,0,0,0,.73,2.15,4.57,4.57,0,0,0,1.76,1.21,20,20,0,0,0,2.6.77A13.93,13.93,0,0,1,57,36.1a1,1,0,0,1,.68.93q0,1.89-3,1.89l-11.42,0a4.77,4.77,0,0,1-3.28-1A4.38,4.38,0,0,1,38.6,35h9a1.16,1.16,0,0,0,1.23-1.2,7.54,7.54,0,0,0-.75-3.34A6,6,0,0,0,45.93,28,6.2,6.2,0,0,0,42.52,27,6.13,6.13,0,0,0,39,28a5.94,5.94,0,0,0-2.13,2.59,8.68,8.68,0,0,0-.69,3.49A7.11,7.11,0,0,0,38,39.31a6.8,6.8,0,0,0,5.08,1.85ZM38.6,33a4.35,4.35,0,0,1,.67-2.19,3.58,3.58,0,0,1,1.47-1.29,4.07,4.07,0,0,1,3.57,0,3.67,3.67,0,0,1,1.48,1.29A4.27,4.27,0,0,1,46.47,33Z"/><path class="cls-2" d="M63.65,6.22a1.14,1.14,0,0,0-.85-.36,1.16,1.16,0,0,0-1.12.8L57.9,16,54,6.61a1.22,1.22,0,0,0-.44-.53,1.17,1.17,0,0,0-.68-.21,1.14,1.14,0,0,0-.85.36,1.2,1.2,0,0,0-.35.87,1.36,1.36,0,0,0,.11.51L56.59,19l-.7,2.14a2.72,2.72,0,0,1-.25.39,1.11,1.11,0,0,1-.35.31,1.75,1.75,0,0,1-.81.14H1.06A1.06,1.06,0,0,0,0,23v.1a1.06,1.06,0,0,0,1.06,1.06H56.41c.81,0,1-.47,1.24-1L63.92,7.54A1.28,1.28,0,0,0,64,7.09,1.21,1.21,0,0,0,63.65,6.22Z"/></g></g></svg>