<svg xmlns="http://www.w3.org/2000/svg" viewBox="0 0 398.5 253"><defs><style>.cls-1{fill:#f3ff71;opacity:0.93;}.cls-2{fill:#ffebf3;}.cls-3{fill:#ff2e77;}.cls-4{fill:#009eff;}</style></defs><title>Asset 2</title><g id="Layer_2" data-name="Layer 2"><g id="Layer_5" data-name="Layer 5"><rect class="cls-1" y="13" width="385" height="240"/><rect class="cls-2" x="13.5" width="385" height="240"/><path class="cls-3" d="M173.37,13.8a6.49,6.49,0,0,0-4.76-2h-.79a6.78,6.78,0,0,0-6.75,6.75v.53a6.78,6.78,0,0,0,6.75,6.75h.79a6.78,6.78,0,0,0,6.75-6.75v-.53A6.5,6.5,0,0,0,173.37,13.8Z"/><path class="cls-4" d="M150.44,98a4.66,4.66,0,0,0-3.31-1.39,7.29,7.29,0,0,0-1.52.13l-1.12.26a18.35,18.35,0,0,1-5.29.79A12.33,12.33,0,0,1,133,96.43q-2.45-1.39-2.45-6.55v-40h15a4.91,4.91,0,0,0,3.7-1.52,5.08,5.08,0,0,0,1.46-3.64,5,5,0,0,0-5.16-5.16h-15V29a2.66,2.66,0,0,0-.73-1.85,2.33,2.33,0,0,0-1.79-.79,3.34,3.34,0,0,0-2.25,1.19l-11.45,11.2-32.94-.48Q69,38.28,62.32,44.1a19.07,19.07,0,0,0-6.68,15.08q0,6.62,3.64,10.65a22.66,22.66,0,0,0,8.73,6,99.5,99.5,0,0,0,12.9,3.84,69.12,69.12,0,0,1,11,3.57q3.37,1.59,3.37,4.63,0,9.4-14.69,9.39a39.28,39.28,0,0,1-9.53-1.06,53.2,53.2,0,0,1-8.47-2.91,5.84,5.84,0,0,0-2.38-.53,4.8,4.8,0,0,0-3.7,1.59,5.31,5.31,0,0,0-1.46,3.71,5.05,5.05,0,0,0,2.25,4.37,49.2,49.2,0,0,0,24.08,6q12.17,0,18.85-5.56a17.48,17.48,0,0,0,6.68-14q0-6.88-3.51-11a21,21,0,0,0-8.4-6,110.66,110.66,0,0,0-12.7-3.9,52.71,52.71,0,0,1-11.51-3.57,6.12,6.12,0,0,1-3.7-5.82q0-4.1,4-6.68t11.18-2.58l26.27.61a2.76,2.76,0,0,0,.52,0h9.39v41q0,17.46,19.32,17.46a25.89,25.89,0,0,0,11-2.38,5,5,0,0,0,3-4.63A4.49,4.49,0,0,0,150.44,98Z"/><path class="cls-4" d="M168.08,38.94a5.64,5.64,0,0,0-4.23,1.79,6,6,0,0,0-1.72,4.3v56.76a5.87,5.87,0,0,0,6,6,6,6,0,0,0,4.3-1.72,5.64,5.64,0,0,0,1.79-4.23V45a5.88,5.88,0,0,0-6.09-6.09Z"/><path class="cls-4" d="M199.69,104.17A32.57,32.57,0,0,1,186.79,92,35.18,35.18,0,0,1,182,73.34a35.17,35.17,0,0,1,4.83-18.65,32.59,32.59,0,0,1,12.9-12.17,37.3,37.3,0,0,1,17.6-4.23,36.66,36.66,0,0,1,12.11,1.79,45.72,45.72,0,0,1,9.46,4.56A5.26,5.26,0,0,1,240,52.9a4.64,4.64,0,0,1-3.51,1.65,6,6,0,0,1-2.91-.79,50.63,50.63,0,0,0-7.47-3.24,25.82,25.82,0,0,0-7.74-1q-11.38,0-17.86,6.55T194,73.34q0,10.72,6.48,17.27t17.86,6.55a25.82,25.82,0,0,0,7.74-1,50.21,50.21,0,0,0,7.47-3.24,6,6,0,0,1,2.91-.79A4.65,4.65,0,0,1,240,93.78a5.26,5.26,0,0,1-1.12,8.27,45.72,45.72,0,0,1-9.46,4.56,36.68,36.68,0,0,1-12.11,1.79A37.28,37.28,0,0,1,199.69,104.17Z"/><path class="cls-4" d="M251.3,106a5.75,5.75,0,0,1-1.72-4.23V15.92a6,6,0,0,1,1.72-4.3,5.64,5.64,0,0,1,4.23-1.79,6.1,6.1,0,0,1,6.09,6.09V70l31.49-29.11a6.1,6.1,0,0,1,4-1.72,5.37,5.37,0,0,1,4.43,1.72A6.33,6.33,0,0,1,302.9,45a6.48,6.48,0,0,1-2.25,4.5L281.6,66.59l23.95,31.75a5.8,5.8,0,0,1,1.32,3.57,5.49,5.49,0,0,1-1.72,4.23,6.19,6.19,0,0,1-4.37,1.59,5.87,5.87,0,0,1-2.65-.66,6.48,6.48,0,0,1-2.25-1.85l-22.76-31L261.62,84.72v17.07a5.64,5.64,0,0,1-1.79,4.23,6,6,0,0,1-4.3,1.72A5.75,5.75,0,0,1,251.3,106Z"/><path class="cls-4" d="M57.33,211.78a5.75,5.75,0,0,1-1.72-4.23V150.79a6,6,0,0,1,1.72-4.3,5.64,5.64,0,0,1,4.23-1.79,6.1,6.1,0,0,1,6.09,6.09v5.42a44,44,0,0,1,10.85-8.86A27.41,27.41,0,0,1,92.26,144a22.88,22.88,0,0,1,12.63,3.44,22.39,22.39,0,0,1,8.2,9.39,30,30,0,0,1,2.84,13.1v37.57a5.64,5.64,0,0,1-1.79,4.23,6,6,0,0,1-4.3,1.72,5.87,5.87,0,0,1-6-6V171.3q0-16.14-14.55-16.14a21.06,21.06,0,0,0-11.84,3.44,42.87,42.87,0,0,0-9.86,9.26v39.69a5.64,5.64,0,0,1-1.79,4.23,6,6,0,0,1-4.3,1.72A5.75,5.75,0,0,1,57.33,211.78Z"/><path class="cls-4" d="M138.09,209.8a29.66,29.66,0,0,1-11.84-12.37,42.37,42.37,0,0,1,0-36.65,29.68,29.68,0,0,1,11.84-12.37,38.45,38.45,0,0,1,35.59,0,30.12,30.12,0,0,1,11.91,12.37,41.76,41.76,0,0,1,0,36.65,30.1,30.1,0,0,1-11.91,12.37,38.44,38.44,0,0,1-35.59,0Zm28.25-9.13a20.19,20.19,0,0,0,8.2-7.94q3.24-5.42,3.24-13.76t-3.24-13.63a19.76,19.76,0,0,0-8.2-7.87A23.19,23.19,0,0,0,155.95,155a23.46,23.46,0,0,0-10.52,2.45,19.36,19.36,0,0,0-8.14,7.87q-3.18,5.43-3.18,13.63t3.18,13.76a19.78,19.78,0,0,0,8.14,7.94,23,23,0,0,0,10.52,2.51A22.68,22.68,0,0,0,166.34,200.67Z"/><path class="cls-4" d="M197.06,196.7v-41h-9.39a2.48,2.48,0,0,1-2.51-2.51,2.77,2.77,0,0,1,1.19-2.25l18-17.6a3.34,3.34,0,0,1,2.25-1.19,2.33,2.33,0,0,1,1.79.79,2.66,2.66,0,0,1,.73,1.85v10.58h15a5,5,0,0,1,5.16,5.16,5.08,5.08,0,0,1-1.46,3.64,4.91,4.91,0,0,1-3.7,1.52h-15v40q0,5.16,2.45,6.55a12.33,12.33,0,0,0,6.15,1.39,18.35,18.35,0,0,0,5.29-.79l1.12-.26a7.29,7.29,0,0,1,1.52-.13,4.66,4.66,0,0,1,3.31,1.39,4.49,4.49,0,0,1,1.46,3.37,5,5,0,0,1-3,4.63,25.89,25.89,0,0,1-11,2.38Q197.06,214.16,197.06,196.7Z"/><path class="cls-4" d="M322.42,214.16q12.17,0,18.85-5.56a17.48,17.48,0,0,0,6.68-14q0-6.88-3.51-11a21,21,0,0,0-8.4-6,110.66,110.66,0,0,0-12.7-3.9,52.71,52.71,0,0,1-11.51-3.57,6.12,6.12,0,0,1-3.7-5.82q0-4.1,4-6.68T323.34,155a50.71,50.71,0,0,1,15.08,2.38,7.36,7.36,0,0,0,1.72.26,5,5,0,0,0,3.77-1.59,5.19,5.19,0,0,0,1.52-3.7,5.33,5.33,0,0,0-1-3,5,5,0,0,0-2.84-2A55.19,55.19,0,0,0,322.42,144q-12.44,0-19.12,5.82a19.07,19.07,0,0,0-6.68,15.08q0,6.62,3.64,10.65a22.66,22.66,0,0,0,8.73,6,99.5,99.5,0,0,0,12.9,3.84,69.12,69.12,0,0,1,11,3.57q3.37,1.59,3.37,4.63,0,9.4-14.69,9.39l-56.7-.13q-10.45,0-16.27-5.16t-6.88-14.42h44.85a5.78,5.78,0,0,0,6.09-6,37.43,37.43,0,0,0-3.71-16.6,29.52,29.52,0,0,0-10.85-12.17A30.78,30.78,0,0,0,261.22,144q-10.45,0-17.6,4.89A29.46,29.46,0,0,0,233,161.77a43.11,43.11,0,0,0-3.44,17.33q0,16.67,9.06,25.87t25.2,9.2Zm-80.64-40.62a21.59,21.59,0,0,1,3.31-10.85,17.77,17.77,0,0,1,7.28-6.42,20.18,20.18,0,0,1,17.73,0,18.22,18.22,0,0,1,7.34,6.42,21.2,21.2,0,0,1,3.37,10.85Z"/><path class="cls-4" d="M366.12,40.73a5.65,5.65,0,0,0-4.23-1.79q-3.84,0-5.56,4L337.56,89.19,318.19,42.65A6,6,0,0,0,316,40a5.78,5.78,0,0,0-3.37-1.06,5.64,5.64,0,0,0-4.23,1.79,6,6,0,0,0-1.72,4.3,6.75,6.75,0,0,0,.53,2.51l23.87,56.59-3.49,10.64a13.51,13.51,0,0,1-1.25,1.93,5.53,5.53,0,0,1-1.71,1.52,8.7,8.7,0,0,1-4,.69H55.41a5.25,5.25,0,0,0-5.25,5.25v.5a5.25,5.25,0,0,0,5.25,5.25H330.16c4,0,5.15-2.33,6.17-4.84l31.12-77.79a6.35,6.35,0,0,0,.4-2.25A6,6,0,0,0,366.12,40.73Z"/></g></g></svg>