<svg x="0" y="0" width="1366" height="768" viewBox="0 0 1366 768" xmlns="http://www.w3.org/2000/svg" xmlns:xlink="http://www.w3.org/1999/xlink" xmlns:fi="http://pattern.flaticon.com/"><rect x="0px" y="0px" width="100%" height="100%" opacity="0" fill="#ffffff"/><defs><g transform="matrix(0.12934984266757965 0.04217929765582085 -0.04217929765582085 0.12934984266757965 -19.359651565551758 311.90570068359375)" id="L1_444"><path d="M394.388,313.627h-16.563v-16.499c0-4.142-3.358-7.5-7.5-7.5h-200.99c-4.142,0-7.5,3.358-7.5,7.5v65.496   c0,44.938,36.56,81.497,81.498,81.497h52.995c24.84,0,47.106-11.184,62.066-28.766l37.802-18.686   c19.2-9.49,31.127-28.691,31.127-50.108C427.323,328.401,412.548,313.627,394.388,313.627z M362.825,346.904h-185.99v-6.999h185.99   V346.904z M362.825,304.628v20.277h-185.99v-20.277H362.825z M296.327,429.121h-52.995c-36.667,0-66.498-29.831-66.498-66.497   v-0.719h185.99v0.719C362.825,399.291,332.994,429.121,296.327,429.121z M389.549,383.222l-17.094,8.45   c3.457-9.03,5.37-18.817,5.37-29.048v-33.997h16.563c9.889,0,17.935,8.045,17.935,17.934   C412.323,362.231,403.596,376.279,389.549,383.222z"/><path d="M156.645,397.904H31.799V72.416H257.14v195.866c0,4.142,3.358,7.5,7.5,7.5s7.5-3.358,7.5-7.5V64.916   c0-4.142-3.358-7.5-7.5-7.5H24.299c-4.142,0-7.5,3.358-7.5,7.5v340.488c0,4.142,3.358,7.5,7.5,7.5h132.347   c4.142,0,7.5-3.358,7.5-7.5S160.787,397.904,156.645,397.904z"/><path d="M135.279,99.968c0-4.142-3.358-7.5-7.5-7.5h-68.43c-4.142,0-7.5,3.358-7.5,7.5v57.022c0,4.142,3.358,7.5,7.5,7.5h68.43   c4.142,0,7.5-3.358,7.5-7.5V99.968z M120.279,149.49h-53.43v-42.022h53.43V149.49z"/><path d="M127.779,180.653h-68.43c-4.142,0-7.5,3.358-7.5,7.5s3.358,7.5,7.5,7.5h68.43c4.142,0,7.5-3.358,7.5-7.5   S131.921,180.653,127.779,180.653z"/><path d="M127.779,210.185h-68.43c-4.142,0-7.5,3.358-7.5,7.5s3.358,7.5,7.5,7.5h68.43c4.142,0,7.5-3.358,7.5-7.5   S131.921,210.185,127.779,210.185z"/><path d="M127.779,239.717h-68.43c-4.142,0-7.5,3.358-7.5,7.5s3.358,7.5,7.5,7.5h68.43c4.142,0,7.5-3.358,7.5-7.5   S131.921,239.717,127.779,239.717z"/><path d="M127.779,269.249h-68.43c-4.142,0-7.5,3.358-7.5,7.5s3.358,7.5,7.5,7.5h68.43c4.142,0,7.5-3.358,7.5-7.5   S131.921,269.249,127.779,269.249z"/><path d="M127.779,298.781h-68.43c-4.142,0-7.5,3.358-7.5,7.5s3.358,7.5,7.5,7.5h68.43c4.142,0,7.5-3.358,7.5-7.5   S131.921,298.781,127.779,298.781z"/><path d="M127.779,328.313h-68.43c-4.142,0-7.5,3.358-7.5,7.5s3.358,7.5,7.5,7.5h68.43c4.142,0,7.5-3.358,7.5-7.5   S131.921,328.313,127.779,328.313z"/><path d="M127.779,357.845h-68.43c-4.142,0-7.5,3.358-7.5,7.5s3.358,7.5,7.5,7.5h68.43c4.142,0,7.5-3.358,7.5-7.5   S131.921,357.845,127.779,357.845z"/><path d="M229.59,92.468h-68.43c-4.142,0-7.5,3.358-7.5,7.5s3.358,7.5,7.5,7.5h68.43c4.142,0,7.5-3.358,7.5-7.5   S233.732,92.468,229.59,92.468z"/><path d="M229.59,122h-68.43c-4.142,0-7.5,3.358-7.5,7.5s3.358,7.5,7.5,7.5h68.43c4.142,0,7.5-3.358,7.5-7.5S233.732,122,229.59,122   z"/><path d="M229.59,151.532h-68.43c-4.142,0-7.5,3.358-7.5,7.5s3.358,7.5,7.5,7.5h68.43c4.142,0,7.5-3.358,7.5-7.5   S233.732,151.532,229.59,151.532z"/><path d="M229.59,181.064h-68.43c-4.142,0-7.5,3.358-7.5,7.5s3.358,7.5,7.5,7.5h68.43c4.142,0,7.5-3.358,7.5-7.5   S233.732,181.064,229.59,181.064z"/><path d="M229.59,212.17h-68.43c-4.142,0-7.5,3.358-7.5,7.5v48.612c0,4.142,3.358,7.5,7.5,7.5h68.43c4.142,0,7.5-3.358,7.5-7.5   V219.67C237.09,215.528,233.732,212.17,229.59,212.17z M222.09,260.782h-53.43V227.17h53.43V260.782z"/><path d="M251.366,44.083c3.405,2.358,8.078,1.508,10.436-1.897C273.587,25.163,292.965,15,313.637,15   c34.736,0,62.997,28.26,62.997,62.997s-28.26,62.996-62.997,62.996c-8.508,0-16.757-1.665-24.519-4.947   c-3.814-1.615-8.215,0.171-9.829,3.986c-1.613,3.815,0.171,8.215,3.986,9.829c9.621,4.069,19.836,6.132,30.362,6.132   c43.007,0,77.997-34.989,77.997-77.996C391.634,34.989,356.645,0,313.637,0c-25.594,0-49.582,12.578-64.168,33.647   C247.112,37.053,247.961,41.725,251.366,44.083z"/><path d="M288.409,85.497h25.229c4.142,0,7.5-3.358,7.5-7.5V53.9c0-4.142-3.358-7.5-7.5-7.5s-7.5,3.358-7.5,7.5v16.597h-17.729   c-4.142,0-7.5,3.358-7.5,7.5S284.267,85.497,288.409,85.497z"/></g><g transform="matrix(0.05037783458828926 0 0 0.05037783458828926 77.5 340)" id="L1_445"><path d="M369.499,36h-27.398V7.5c0-4.142-3.357-7.5-7.5-7.5s-7.5,3.358-7.5,7.5V36h-39.44V7.5c0-4.142-3.357-7.5-7.5-7.5   s-7.5,3.358-7.5,7.5V36h-39.44V7.5c0-4.142-3.357-7.5-7.5-7.5s-7.5,3.358-7.5,7.5V36h-39.44V7.5c0-4.142-3.357-7.5-7.5-7.5   s-7.5,3.358-7.5,7.5V36h-39.44V7.5c0-4.142-3.357-7.5-7.5-7.5s-7.5,3.358-7.5,7.5V36h-39.44V7.5c0-4.142-3.357-7.5-7.5-7.5   s-7.5,3.358-7.5,7.5V36H27.501c-4.143,0-7.5,3.358-7.5,7.5v319.953c0,4.142,3.357,7.5,7.5,7.5h341.998c4.143,0,7.5-3.358,7.5-7.5   V43.5C376.999,39.358,373.642,36,369.499,36z M54.898,51v20.5c0,4.142,3.357,7.5,7.5,7.5s7.5-3.358,7.5-7.5V51h39.44v20.5   c0,4.142,3.357,7.5,7.5,7.5s7.5-3.358,7.5-7.5V51h39.44v20.5c0,4.142,3.357,7.5,7.5,7.5s7.5-3.358,7.5-7.5V51h39.44v20.5   c0,4.142,3.357,7.5,7.5,7.5s7.5-3.358,7.5-7.5V51h39.44v20.5c0,4.142,3.357,7.5,7.5,7.5s7.5-3.358,7.5-7.5V51h39.44v20.5   c0,4.142,3.357,7.5,7.5,7.5s7.5-3.358,7.5-7.5V51h19.898v69H35.001V51H54.898z M35.001,355.953V135h326.998v220.953H35.001z"/><path d="M345.07,382H51.93c-4.143,0-7.5,3.358-7.5,7.5s3.357,7.5,7.5,7.5H345.07c4.143,0,7.5-3.358,7.5-7.5S349.213,382,345.07,382   z"/><path d="M126.122,162.311c-2.93-2.929-7.678-2.929-10.607,0l-4.242,4.242l-4.242-4.242c-2.93-2.929-7.678-2.929-10.607,0   c-2.929,2.929-2.929,7.677,0,10.606l4.242,4.242l-4.242,4.242c-2.929,2.929-2.929,7.678,0,10.606   c1.465,1.464,3.385,2.197,5.304,2.197s3.839-0.732,5.304-2.197l4.242-4.242l4.242,4.242c1.465,1.465,3.384,2.197,5.304,2.197   c1.919,0,3.839-0.732,5.304-2.197c2.929-2.929,2.929-7.678,0-10.606l-4.242-4.242l4.242-4.242   C129.051,169.988,129.051,165.24,126.122,162.311z"/><path d="M82.508,162.311c-2.93-2.929-7.678-2.929-10.607,0l-4.242,4.242l-4.242-4.242c-2.929-2.929-7.677-2.929-10.607,0   c-2.929,2.929-2.929,7.677,0,10.606l4.242,4.242l-4.242,4.242c-2.929,2.929-2.929,7.678,0,10.606   c1.465,1.464,3.385,2.197,5.304,2.197s3.839-0.732,5.304-2.197l4.242-4.242l4.242,4.242c1.465,1.465,3.384,2.197,5.304,2.197   c1.919,0,3.839-0.732,5.304-2.197c2.929-2.929,2.929-7.678,0-10.606l-4.242-4.242l4.242-4.242   C85.437,169.988,85.437,165.24,82.508,162.311z"/><path d="M169.735,162.311c-2.93-2.929-7.678-2.929-10.607,0l-4.242,4.242l-4.242-4.242c-2.929-2.929-7.677-2.929-10.607,0   c-2.929,2.929-2.929,7.677,0,10.606l4.242,4.242l-4.242,4.242c-2.929,2.929-2.929,7.678,0,10.606   c1.465,1.464,3.385,2.197,5.304,2.197s3.839-0.732,5.304-2.197l4.242-4.242l4.242,4.242c1.465,1.465,3.384,2.197,5.304,2.197   c1.919,0,3.839-0.732,5.304-2.197c2.929-2.929,2.929-7.678,0-10.606l-4.242-4.242l4.242-4.242   C172.664,169.988,172.664,165.24,169.735,162.311z"/><path d="M300.576,162.311c-2.93-2.929-7.678-2.929-10.607,0l-4.242,4.242l-4.242-4.242c-2.929-2.929-7.677-2.929-10.607,0   c-2.929,2.929-2.929,7.677,0,10.606l4.242,4.242l-4.242,4.242c-2.929,2.929-2.929,7.678,0,10.606   c1.465,1.464,3.385,2.197,5.304,2.197s3.839-0.732,5.304-2.197l4.242-4.242l4.242,4.242c1.465,1.465,3.384,2.197,5.304,2.197   c1.919,0,3.839-0.732,5.304-2.197c2.929-2.929,2.929-7.678,0-10.606l-4.242-4.242l4.242-4.242   C303.505,169.988,303.505,165.24,300.576,162.311z"/><path d="M344.19,162.311c-2.929-2.929-7.677-2.929-10.607,0l-4.242,4.242l-4.242-4.242c-2.93-2.929-7.678-2.929-10.607,0   c-2.929,2.929-2.929,7.678,0,10.606l4.243,4.242l-4.243,4.242c-2.929,2.929-2.929,7.678,0,10.606   c1.465,1.465,3.384,2.197,5.304,2.197c1.919,0,3.839-0.732,5.304-2.197l4.242-4.242l4.242,4.242   c1.465,1.464,3.385,2.197,5.304,2.197s3.839-0.732,5.304-2.197c2.929-2.929,2.929-7.678,0-10.606l-4.243-4.242l4.243-4.242   C347.119,169.989,347.119,165.24,344.19,162.311z"/><path d="M213.349,162.311c-2.93-2.929-7.678-2.929-10.607,0l-4.242,4.242l-4.242-4.242c-2.929-2.929-7.677-2.929-10.607,0   c-2.929,2.929-2.929,7.677,0,10.606l4.242,4.242l-4.242,4.242c-2.929,2.929-2.929,7.678,0,10.606   c1.465,1.464,3.385,2.197,5.304,2.197s3.839-0.732,5.304-2.197l4.242-4.242l4.242,4.242c1.465,1.465,3.384,2.197,5.304,2.197   c1.919,0,3.839-0.732,5.304-2.197c2.929-2.929,2.929-7.678,0-10.606l-4.242-4.242l4.242-4.242   C216.277,169.988,216.277,165.24,213.349,162.311z"/><path d="M256.963,162.311c-2.93-2.929-7.678-2.929-10.607,0l-4.242,4.242l-4.242-4.242c-2.93-2.929-7.678-2.929-10.607,0   c-2.929,2.929-2.929,7.677,0,10.606l4.242,4.242l-4.242,4.242c-2.929,2.929-2.929,7.678,0,10.606   c1.465,1.464,3.385,2.197,5.304,2.197s3.839-0.732,5.304-2.197l4.242-4.242l4.242,4.242c1.465,1.465,3.384,2.197,5.304,2.197   c1.919,0,3.839-0.732,5.304-2.197c2.929-2.929,2.929-7.678,0-10.606l-4.242-4.242l4.242-4.242   C259.892,169.988,259.892,165.24,256.963,162.311z"/><path d="M126.122,206.951c-2.93-2.929-7.678-2.929-10.607,0l-4.242,4.242l-4.242-4.242c-2.93-2.929-7.678-2.929-10.607,0   c-2.929,2.929-2.929,7.678,0,10.606l4.242,4.242l-4.242,4.242c-2.929,2.929-2.929,7.678,0,10.606   c1.465,1.464,3.385,2.197,5.304,2.197s3.839-0.732,5.304-2.197l4.242-4.242l4.242,4.242c1.465,1.464,3.385,2.197,5.304,2.197   s3.839-0.732,5.304-2.197c2.929-2.929,2.929-7.678,0-10.606l-4.242-4.242l4.242-4.242   C129.051,214.628,129.051,209.879,126.122,206.951z"/><path d="M82.508,206.951c-2.93-2.929-7.678-2.929-10.607,0l-4.242,4.242l-4.242-4.242c-2.93-2.929-7.678-2.929-10.607,0   c-2.929,2.929-2.929,7.678,0,10.606l4.242,4.242l-4.242,4.242c-2.929,2.929-2.929,7.678,0,10.606   c1.465,1.464,3.385,2.197,5.304,2.197s3.839-0.732,5.304-2.197l4.242-4.242l4.242,4.242c1.465,1.464,3.385,2.197,5.304,2.197   s3.839-0.732,5.304-2.197c2.929-2.929,2.929-7.678,0-10.606l-4.242-4.242l4.242-4.242   C85.437,214.628,85.437,209.879,82.508,206.951z"/><path d="M169.735,206.951c-2.93-2.929-7.678-2.929-10.607,0l-4.242,4.242l-4.242-4.242c-2.93-2.929-7.678-2.929-10.607,0   c-2.929,2.929-2.929,7.678,0,10.606l4.242,4.242l-4.242,4.242c-2.929,2.929-2.929,7.678,0,10.606   c1.465,1.464,3.385,2.197,5.304,2.197s3.839-0.732,5.304-2.197l4.242-4.242l4.242,4.242c1.465,1.464,3.385,2.197,5.304,2.197   s3.839-0.732,5.304-2.197c2.929-2.929,2.929-7.678,0-10.606l-4.242-4.242l4.242-4.242   C172.664,214.628,172.664,209.879,169.735,206.951z"/><path d="M213.349,206.951c-2.93-2.929-7.678-2.929-10.607,0l-4.242,4.242l-4.242-4.242c-2.93-2.929-7.678-2.929-10.607,0   c-2.929,2.929-2.929,7.678,0,10.606l4.242,4.242l-4.242,4.242c-2.929,2.929-2.929,7.678,0,10.606   c1.465,1.464,3.385,2.197,5.304,2.197s3.839-0.732,5.304-2.197l4.242-4.242l4.242,4.242c1.465,1.464,3.385,2.197,5.304,2.197   s3.839-0.732,5.304-2.197c2.929-2.929,2.929-7.678,0-10.606l-4.242-4.242l4.242-4.242   C216.277,214.628,216.277,209.879,213.349,206.951z"/><path d="M336.263,308.209c-1.141-2.858-4.107-4.719-7.162-4.623c-3.378,0.106-6.335,2.547-7.077,5.846   c-0.672,2.989,0.601,6.18,3.149,7.877c2.909,1.938,7.008,1.606,9.47-0.93C336.78,314.307,337.417,310.935,336.263,308.209   C336.083,307.759,336.453,308.659,336.263,308.209z"/><path d="M71.822,304.839c-2.671-1.763-6.291-1.644-8.807,0.351c-2.388,1.893-3.415,5.144-2.532,8.065   c0.913,3.019,3.72,5.184,6.867,5.317c3.111,0.131,6.033-1.757,7.232-4.624C75.96,310.658,74.745,306.832,71.822,304.839   C71.413,304.569,72.232,305.119,71.822,304.839z"/><path d="M292.652,308.209c-0.382-0.908-0.932-1.734-1.619-2.44c-2.732-2.652-7.093-2.914-10.063-0.488   c-3.043,2.486-3.592,7.024-1.31,10.201c2.134,2.972,6.218,3.897,9.471,2.277C292.569,316.048,294.148,311.741,292.652,308.209   C292.463,307.759,292.843,308.659,292.652,308.209z"/><path d="M249.033,308.209c-1.937-4.828-8.577-6.184-12.221-2.43c-2.898,2.817-2.898,7.783,0,10.6c0.34,0.35,0.721,0.66,1.141,0.93   c2.609,1.828,6.277,1.619,8.762-0.313C249.339,314.956,250.327,311.281,249.033,308.209   C248.853,307.759,249.223,308.659,249.033,308.209z"/><path d="M205.423,308.209c-1.171-2.768-3.902-4.63-6.925-4.63c-3.271,0-6.22,2.2-7.174,5.322   c-1.997,6.534,5.486,12.161,11.215,8.496C205.548,315.472,206.815,311.514,205.423,308.209   C205.232,307.759,205.612,308.659,205.423,308.209z"/><path d="M159.053,304.839c-2.92-1.922-7.006-1.598-9.47,0.94c-2.896,2.807-2.896,7.793,0,10.6c3.221,3.319,8.928,2.71,11.494-1.074   C163.397,311.883,162.453,307.159,159.053,304.839C158.643,304.569,159.463,305.119,159.053,304.839z"/><path d="M118.192,308.209c-0.36-0.903-0.921-1.753-1.62-2.43c-4.527-4.663-12.633-1.264-12.795,5.116   c-0.167,6.558,8.147,10.272,12.795,5.484C118.712,314.305,119.348,310.939,118.192,308.209   C118.013,307.759,118.383,308.659,118.192,308.209z"/><path d="M336.263,263.569c-2.437-6.107-11.351-5.973-13.85,0c-1.281,3.063-0.31,6.702,2.282,8.759   c2.408,1.91,5.849,2.116,8.483,0.551C336.321,271.012,337.693,266.95,336.263,263.569   C336.083,263.119,336.453,264.019,336.263,263.569z"/><path d="M74.583,263.569c-2.578-6.094-11.508-6.037-13.917,0.171c-2.477,6.385,4.59,12.515,10.558,9.292   C74.549,271.236,76.054,267.063,74.583,263.569C74.393,263.119,74.772,264.019,74.583,263.569z"/><path d="M289.893,260.199c-5.677-3.738-13.225,1.674-11.388,8.241c0.847,3.027,3.532,5.235,6.668,5.476   c3.267,0.251,6.365-1.734,7.547-4.778C293.985,265.878,292.761,262.159,289.893,260.199   C289.482,259.929,290.303,260.479,289.893,260.199z"/><path d="M249.033,263.569c-1.752-4.365-7.368-5.963-11.204-3.284c-3.727,2.604-4.323,8.24-1.017,11.454   c2.488,2.563,6.676,2.887,9.582,0.854C249.239,270.604,250.386,266.785,249.033,263.569   C248.853,263.119,249.223,264.019,249.033,263.569z"/><path d="M205.423,263.569c-1.195-2.826-4.022-4.704-7.109-4.625c-3.329,0.085-6.285,2.44-7.089,5.676   c-1.648,6.633,6.118,11.914,11.68,7.883C205.675,270.495,206.754,266.732,205.423,263.569   C205.232,263.119,205.612,264.019,205.423,263.569z"/><path d="M159.053,260.199c-2.922-1.923-7.004-1.597-9.47,0.94c-2.894,2.81-2.898,7.791,0,10.6c3.142,3.237,8.66,2.753,11.315-0.822   C163.435,267.501,162.544,262.584,159.053,260.199C158.643,259.929,159.463,260.479,159.053,260.199z"/><path d="M115.433,260.199c-5.22-3.529-12.39,0.963-11.599,7.159c0.765,5.994,8.429,8.821,12.739,4.381   C119.955,268.46,119.226,262.791,115.433,260.199C115.033,259.929,115.843,260.479,115.433,260.199z"/><path d="M333.503,215.559c-2.814-1.853-6.622-1.611-9.146,0.637c-2.249,2.003-3.107,5.29-2.077,8.131   c1.125,3.106,4.223,5.164,7.529,4.956c2.958-0.186,5.589-2.165,6.588-4.956C337.552,221.097,336.321,217.481,333.503,215.559   C333.093,215.289,333.913,215.839,333.503,215.559z"/><path d="M292.652,218.929c-1.264-3.001-4.396-4.932-7.659-4.592c-3.065,0.319-5.658,2.491-6.489,5.462   c-1.846,6.601,5.862,12.101,11.509,8.155C292.857,225.967,294.01,222.139,292.652,218.929   C292.463,218.479,292.843,219.379,292.652,218.929z"/><path d="M249.033,218.929c-1.937-4.823-8.577-6.183-12.221-2.43c-4.182,4.065-1.932,11.352,3.653,12.611   C246.267,230.418,251.354,224.443,249.033,218.929C248.853,218.479,249.223,219.379,249.033,218.929z"/></g><g transform="matrix(0.13131362199783325 0 0 0.13131362199783325 149.3950958251953 -17.590808868408203)" id="L1_446"><path d="M145.407,248.988l-2.775,26.209c-0.224,2.115,0.46,4.225,1.883,5.806c1.422,1.581,3.449,2.483,5.576,2.483h79.301   c2.126,0,4.153-0.903,5.576-2.483c1.422-1.581,2.106-3.691,1.883-5.806l-2.775-26.209h98.777c15.374,0,27.881-12.507,27.881-27.881   V27.881C360.733,12.507,348.225,0,332.852,0H40.63C25.256,0,12.749,12.507,12.749,27.881v193.226   c0,15.374,12.507,27.881,27.881,27.881H145.407z M221.055,268.487h-62.629l2.064-19.499h58.5L221.055,268.487z M40.63,15h292.222   c7.103,0,12.881,5.778,12.881,12.881V197.99H27.749V27.881C27.749,20.778,33.527,15,40.63,15z M27.749,221.107v-8.117h317.983   v8.117c0,7.103-5.778,12.881-12.881,12.881H40.63C33.527,233.988,27.749,228.21,27.749,221.107z"/><path d="M332.645,333.876c1.36-2.24,1.453-5.027,0.244-7.352l-14.813-28.499c-1.291-2.483-3.856-4.041-6.655-4.041H62.061   c-2.798,0-5.364,1.558-6.655,4.041l-14.813,28.499c-1.208,2.325-1.116,5.112,0.244,7.352s3.791,3.607,6.411,3.607h278.986   C328.854,337.484,331.285,336.116,332.645,333.876z M59.599,322.484l7.016-13.499h240.251l7.017,13.499H59.599z"/><path d="M345.733,350.982h-12c-17.368,0-31.499,14.13-31.499,31.499c0,4.142,3.358,7.5,7.5,7.5h59.997c4.142,0,7.5-3.358,7.5-7.5   C377.232,365.113,363.102,350.982,345.733,350.982z M319.04,374.981c2.735-5.337,8.295-8.999,14.693-8.999h12   c6.398,0,11.958,3.662,14.694,8.999H319.04z"/></g><g transform="matrix(0.04871869832277298 0 0 0.04871869832277298 252.5 340)" id="L1_447"><path d="M98.644,275.387c-11.369,0-20.618,9.249-20.618,20.618c0,11.369,9.25,20.618,20.618,20.618s20.618-9.249,20.618-20.618   C119.262,284.636,110.012,275.387,98.644,275.387z M98.644,301.623c-3.098,0-5.618-2.521-5.618-5.618s2.521-5.618,5.618-5.618   s5.618,2.52,5.618,5.618S101.741,301.623,98.644,301.623z"/><path d="M311.876,275.387c-11.369,0-20.618,9.249-20.618,20.618c0,11.369,9.25,20.618,20.618,20.618s20.618-9.249,20.618-20.618   C332.495,284.636,323.245,275.387,311.876,275.387z M311.876,301.623c-3.098,0-5.618-2.521-5.618-5.618s2.521-5.618,5.618-5.618   s5.618,2.52,5.618,5.618S314.974,301.623,311.876,301.623z"/><path d="M401,259.826v-70.374v-76.644c0-23.871-19.421-43.292-43.292-43.292H76.773c-37.083,0-67.253,30.17-67.253,67.253v123.056   C3.744,264.164,0,271.071,0,278.836v0.92c0,13.096,10.654,23.75,23.75,23.75h30.533c3.583,21.253,22.105,37.497,44.361,37.497   s40.778-16.244,44.361-37.497h124.511c3.583,21.253,22.105,37.497,44.361,37.497s40.778-16.244,44.361-37.497h30.533   c13.096,0,23.75-10.654,23.75-23.75v-0.92C410.52,271.071,406.776,264.164,401,259.826z M386,181.952h-20.583   c-1.053,0-1.91-0.856-1.91-1.91v-57.824c0-1.053,0.856-1.91,1.91-1.91H386V181.952z M15,279.756v-0.92c0-4.83,3.925-8.76,8.75-8.76   h38.151c-3.817,5.393-6.477,11.655-7.619,18.43H23.75C18.925,288.506,15,284.581,15,279.756z M98.644,326.003   c-16.541,0-29.998-13.458-29.998-29.999s13.457-29.998,29.998-29.998s29.998,13.457,29.998,29.998S115.185,326.003,98.644,326.003z    M267.515,288.506h-124.51c-3.582-21.254-22.105-37.5-44.361-37.5c-6.657,0-12.974,1.464-18.665,4.07H24.52V136.77   c0-28.813,23.441-52.253,52.253-52.253h280.935c13.003,0,23.979,8.821,27.275,20.792h-19.567c-9.324,0-16.91,7.585-16.91,16.91   v57.824c0,9.324,7.585,16.91,16.91,16.91H386v58.125h-55.459c-5.69-2.605-12.008-4.07-18.665-4.07   C289.62,251.007,271.097,267.253,267.515,288.506z M311.876,326.003c-16.541,0-29.998-13.458-29.998-29.999   s13.457-29.998,29.998-29.998s29.998,13.457,29.998,29.998S328.417,326.003,311.876,326.003z M395.52,279.756   c0,4.825-3.925,8.75-8.75,8.75h-30.532c-1.142-6.775-3.802-13.037-7.619-18.43h38.151c4.825,0,8.75,3.93,8.75,8.76V279.756z"/><path d="M326.377,180.042v-57.824c0-9.324-7.585-16.91-16.91-16.91H78.542c-19.952,0-36.184,16.232-36.184,36.184v38.55   c0,9.324,7.585,16.91,16.91,16.91h250.2C318.792,196.952,326.377,189.366,326.377,180.042z M191.868,120.308h58.961v61.644h-58.961   V120.308z M176.868,181.952h-58.96v-61.644h58.96V181.952z M57.358,180.042v-38.55c0-11.681,9.503-21.184,21.184-21.184h24.366   v61.644h-43.64C58.214,181.952,57.358,181.095,57.358,180.042z M311.377,180.042c0,1.053-0.856,1.91-1.91,1.91h-43.639v-61.644   h43.639c1.053,0,1.91,0.856,1.91,1.91V180.042z"/><path d="M369.537,243.413c4.142,0,7.5-3.358,7.5-7.5v-6.667c0-4.142-3.358-7.5-7.5-7.5s-7.5,3.358-7.5,7.5v6.667   C362.037,240.055,365.395,243.413,369.537,243.413z"/></g><g transform="matrix(0.10034770518541336 0 0 0.10034770518541336 67.5 67.5)" id="L1_448"><path d="M398.074,265.117c-10.935-61.976-30.089-122.262-56.93-179.184c-6.007-12.74-18.917-20.632-32.951-20.101   c-26.745,1.01-52.264,6.687-76.248,16.917c-0.081-1.428-0.187-2.854-0.345-4.276c-4.738-42.47-43.146-73.178-85.615-68.43   C111.741,13.864,84.56,39.641,78.394,72.8l-19.627-5.013c-12.436-3.177-25.151,3.512-29.58,15.557L2.087,157.051   c-2.431,6.612-1.944,13.981,1.335,20.216c3.279,6.235,9.075,10.811,15.901,12.555l22.074,5.638l-2.069,29.206l-11.625,20.477   c-0.579,1.02-0.911,2.162-0.968,3.333l-1.525,30.917l-8.795,11.371c-0.898,1.161-1.436,2.56-1.546,4.023l-2.746,36.352   L1.063,349.637c-1.561,2.611-1.391,5.906,0.431,8.341l20.994,28.068c1.443,1.929,3.687,3.008,6.007,3.008   c0.774,0,1.557-0.12,2.321-0.369l39.078-12.725c2.443-0.795,4.309-2.786,4.944-5.275l39.966-156.477l20.875,5.332   c2.029,0.519,4.098,0.773,6.158,0.773c4.871,0,9.692-1.425,13.816-4.165c5.868-3.899,9.828-10.132,10.866-17.1l5.428-36.459   c5.265-1.2,10.336-2.926,15.15-5.14c11.344,54.499,29.067,107.527,52.827,157.915c5.817,12.337,18.13,20.126,31.625,20.126   c0.441,0,0.883-0.008,1.326-0.025c39.664-1.498,76.637-13.246,109.892-34.915C394.514,292.896,400.522,278.987,398.074,265.117z    M82.267,115.33c0.048,0,0.096,0.008,0.145,0.009c1.892,4.838,4.266,9.482,7.097,13.848c1.436,2.215,3.843,3.421,6.3,3.421   c1.398,0,2.812-0.391,4.073-1.208c3.476-2.253,4.467-6.897,2.214-10.373c-0.227-0.35-0.444-0.706-0.663-1.061l12.865,3.286   c4.274,1.092,6.863,5.457,5.771,9.731c-1.092,4.273-5.459,6.862-9.731,5.771l-30.036-7.671c-2.07-0.529-3.811-1.832-4.901-3.67   c-1.09-1.838-1.399-3.99-0.871-6.061s1.833-3.811,3.67-4.901C79.451,115.71,80.848,115.33,82.267,115.33z M25.906,337.318   c0.597-0.999,0.954-2.124,1.042-3.284l2.709-35.873l8.86-11.456c0.939-1.214,1.482-2.686,1.558-4.219l1.554-31.49l11.583-20.403   c0.552-0.973,0.88-2.057,0.959-3.173l1.997-28.188l10.469,2.674l-41.53,162.599l-8.59-11.485L25.906,337.318z M100.271,210.496   L61.326,362.975l-22.192,7.227L81.17,205.618l12.814,3.273L100.271,210.496z M151.682,196.839c-0.419,2.818-1.957,5.238-4.33,6.815   c-2.373,1.577-5.201,2.057-7.961,1.352L23.036,175.288c-2.761-0.705-5.011-2.482-6.337-5.004c-1.327-2.522-1.516-5.383-0.533-8.057   l27.1-73.707c1.765-4.801,6.832-7.468,11.79-6.201l22.035,5.628c0.033,2.575,0.18,5.152,0.465,7.71   c0.188,1.686,0.451,3.362,0.749,5.032c-2.702,0.476-5.327,1.419-7.758,2.86c-5.284,3.134-9.031,8.138-10.551,14.09   c-1.521,5.953-0.632,12.141,2.502,17.425c3.134,5.284,8.138,9.031,14.09,10.551l30.036,7.671c1.899,0.485,3.822,0.725,5.732,0.725   c4.077,0,8.095-1.093,11.693-3.227c5.284-3.134,9.031-8.138,10.552-14.091s0.631-12.141-2.502-17.424   c-3.134-5.284-8.138-9.032-14.09-10.552l-23.958-6.119c-0.721-2.824-1.263-5.702-1.587-8.605c-0.08-0.722-0.137-1.446-0.193-2.171   l63.604,16.245c4.956,1.266,8.125,6.035,7.371,11.094L151.682,196.839z M174.362,146.361l3.72-24.988   c1.89-12.693-6.062-24.661-18.496-27.836L92.959,76.52c4.613-27.198,26.735-48.45,54.69-51.569   c34.25-3.819,65.223,20.936,69.044,55.185c0.359,3.216,0.455,6.46,0.319,9.671c-6.358,3.311-12.598,6.956-18.711,10.939   c-11.746,7.654-17.754,21.562-15.307,35.434c0.354,2.005,0.74,4.004,1.111,6.005C180.999,143.846,177.742,145.243,174.362,146.361z    M374.578,287.982c-30.948,20.167-65.357,31.099-102.27,32.493c-7.985,0.294-15.378-4.215-18.817-11.509   c-23.989-50.873-41.682-104.496-52.729-159.612c8.613-6.395,15.911-14.614,21.37-24.304c2.033-3.609,0.756-8.183-2.853-10.216   c-3.609-2.033-8.182-0.756-10.216,2.853c-3.122,5.541-7,10.473-11.46,14.721c-0.886-7.545,2.514-14.941,8.886-19.094   c30.948-20.167,65.357-31.099,102.27-32.493c0.252-0.009,0.503-0.014,0.754-0.014c7.7,0,14.733,4.46,18.063,11.523   c26.273,55.717,45.021,114.728,55.726,175.393C384.704,275.664,381.279,283.616,374.578,287.982z"/><path d="M358.158,236.464c-2.568-8.082-11.233-12.567-19.315-10l-72.858,23.148c-8.082,2.568-12.568,11.233-10,19.315l6.945,21.859   c2.078,6.539,8.146,10.724,14.668,10.724c1.539,0,3.104-0.233,4.646-0.723l72.858-23.148c0,0,0,0,0,0   c8.082-2.568,12.568-11.233,10-19.315L358.158,236.464z M277.702,286.491c-0.198,0.064-0.414-0.047-0.478-0.247l-6.945-21.859   c-0.063-0.199,0.047-0.413,0.247-0.477l29.281-9.303l7.175,22.583L277.702,286.491z M350.559,263.342L350.559,263.342   l-29.281,9.303l-7.175-22.583l29.281-9.303c0.038-0.012,0.077-0.018,0.115-0.018c0.162,0,0.312,0.104,0.363,0.265l6.945,21.859   C350.87,263.065,350.759,263.279,350.559,263.342z"/><path d="M235.085,161.528l78.15-24.83c3.948-1.254,6.131-5.471,4.877-9.419c-1.254-3.948-5.476-6.131-9.419-4.877l-78.15,24.83   c-3.948,1.254-6.131,5.471-4.877,9.419c1.014,3.192,3.966,5.231,7.146,5.231C233.565,161.882,234.331,161.768,235.085,161.528z"/><path d="M325.38,150.153c-1.254-3.948-5.475-6.13-9.419-4.877l-78.15,24.83c-3.948,1.254-6.131,5.471-4.877,9.419   c1.014,3.192,3.966,5.231,7.146,5.231c0.752,0,1.518-0.114,2.273-0.354l78.15-24.83C324.451,158.317,326.634,154.1,325.38,150.153z   "/></g><g transform="matrix(0.09005358070135117 0 0 0.09005358070135117 242.5 67.5)" id="L1_449"><path d="M400.348,294.485c-8.014-20.093-24.798-33.091-46.049-35.662c-34.474-4.172-72.55,19.051-104.452,63.713   C178.301,422.701,110.164,429.493,90.976,429.168c-16.64-0.268-27.452-5.433-30.785-10.433   c-8.769-13.154,9.513-36.94,20.978-48.972c8.255,6.058,18.181,9.334,28.613,9.334c12.955,0,25.134-5.045,34.294-14.206   l106.461-106.46c2.786,0.3,5.602,0.467,8.444,0.467c20.7,0,40.162-8.062,54.801-22.7c14.638-14.638,22.699-34.1,22.699-54.801   c0-20.701-8.062-40.163-22.699-54.801c-30.219-30.217-79.385-30.215-109.602,0c-14.638,14.638-22.699,34.1-22.699,54.801   c0,2.842,0.167,5.658,0.467,8.444L75.488,296.304c-9.161,9.16-14.206,21.339-14.206,34.294c0,10.412,3.265,20.319,9.3,28.564   c-4.132,4.317-10.097,11.035-15.416,18.867c-16.741,24.653-13.295,40.269-7.456,49.027c6.927,10.392,23.011,16.788,43.023,17.11   c0.541,0.009,1.089,0.013,1.651,0.013c17.095,0,43.821-4.224,76.704-23.5c33.207-19.465,64.485-49.552,92.964-89.424   c28.193-39.471,62.012-60.985,90.444-57.541c15.637,1.891,27.999,11.487,33.918,26.327c10.44,26.179-0.117,62.094-28.242,96.072   c-8.815,10.649-16.981,21.185-24.273,31.314c-2.42,3.362-1.656,8.049,1.705,10.469s8.049,1.657,10.469-1.705   c7.096-9.856,15.054-20.123,23.654-30.513C401.406,367.408,412.853,325.841,400.348,294.485z M86.095,354.286   c-6.327-6.327-9.812-14.74-9.812-23.688c0-6.392,1.787-12.505,5.108-17.785l46.177,46.177c-5.28,3.322-11.394,5.108-17.785,5.108   C100.835,364.098,92.422,360.613,86.095,354.286z M214.788,225.593c-11.805-11.805-18.306-27.5-18.306-44.194   c0-3.396,0.283-6.747,0.811-10.036l71.725,71.725c-3.289,0.528-6.64,0.811-10.036,0.811   C242.288,243.899,226.593,237.397,214.788,225.593z M214.788,137.204c12.185-12.184,28.189-18.276,44.194-18.276   s32.01,6.092,44.193,18.276c11.806,11.805,18.307,27.5,18.307,44.194s-6.501,32.39-18.307,44.194   c-5.276,5.276-11.333,9.484-17.905,12.534l-83.017-83.017C205.304,148.537,209.512,142.48,214.788,137.204z M204.182,236.199   c8.337,8.337,18.243,14.533,29.047,18.329l-94.455,94.455l-47.376-47.376l94.455-94.456   C189.649,217.956,195.844,227.862,204.182,236.199z"/><path d="M71.404,156.771c3.832,0,7.727-0.683,11.515-2.124c8.114-3.085,14.542-9.146,18.097-17.065s3.815-16.75,0.729-24.864   L74.201,40.279l60.756-23.103l17.82,46.862c-5.879-1.236-12.163-0.87-18.183,1.419c-16.75,6.37-25.195,25.179-18.826,41.93   c4.929,12.961,17.306,20.95,30.414,20.95c3.832,0,7.727-0.683,11.515-2.124c8.114-3.085,14.542-9.146,18.097-17.065   s3.815-16.75,0.729-24.864l-30.211-79.45c-0.707-1.859-2.124-3.362-3.938-4.176s-3.879-0.875-5.738-0.168L61.859,28.924   c-3.872,1.472-5.817,5.804-4.345,9.676L78,92.472c-5.879-1.236-12.163-0.869-18.183,1.419c-16.75,6.37-25.195,25.179-18.826,41.93   C45.919,148.782,58.296,156.771,71.404,156.771z M162.109,103.004c-1.915,4.264-5.375,7.528-9.745,9.189   c-9.021,3.428-19.147-1.118-22.578-10.137c-3.429-9.02,1.118-19.148,10.137-22.578c2.041-0.776,4.137-1.144,6.201-1.144   c7.058,0,13.723,4.302,16.377,11.281C164.163,93.985,164.024,98.739,162.109,103.004z M65.148,107.912   c2.041-0.776,4.137-1.144,6.201-1.144c7.058,0,13.723,4.302,16.377,11.281c1.661,4.37,1.522,9.124-0.393,13.389   c-1.915,4.264-5.375,7.528-9.745,9.189c-9.021,3.429-19.147-1.118-22.578-10.137C51.582,121.47,56.129,111.342,65.148,107.912z"/></g><g transform="matrix(0.15481707453727722 -0.04148310795426369 0.04148310795426369 0.15481707453727722 132.13192749023438 150.2359161376953)" id="L1_451"><path d="M278.079,339.563c-4.034-0.93-8.062,1.589-8.992,5.625l-8.68,37.687H16.924l22.956-99.67h185.494   c4.142,0,7.5-3.358,7.5-7.5s-3.358-7.5-7.5-7.5H39.88l-22.956-99.67h243.484l11.055,48c0.93,4.037,4.956,6.556,8.992,5.625   c4.037-0.93,6.555-4.956,5.625-8.992l-12.007-52.134l26.023-112.987c0.513-2.227-0.018-4.565-1.44-6.354s-3.583-2.83-5.868-2.83   H33.911c-3.494,0-6.524,2.412-7.309,5.817L0.192,159.352c-0.255,1.107-0.255,2.259,0,3.366l26.023,112.987L0.192,388.692   c-0.513,2.227,0.018,4.565,1.44,6.354s3.583,2.83,5.868,2.83h258.876c3.494,0,6.524-2.412,7.309-5.817l10.02-43.503   C284.634,344.519,282.116,340.493,278.079,339.563z M39.88,53.865h243.484l-22.956,99.67H16.924L39.88,53.865z"/><path d="M62.997,93.201h128.994c4.142,0,7.5-3.358,7.5-7.5s-3.358-7.5-7.5-7.5H62.997c-4.142,0-7.5,3.358-7.5,7.5   S58.855,93.201,62.997,93.201z"/><path d="M49.498,129.199h128.994c4.142,0,7.5-3.358,7.5-7.5s-3.358-7.5-7.5-7.5H49.498c-4.142,0-7.5,3.358-7.5,7.5   S45.356,129.199,49.498,129.199z"/><path d="M199.491,315.041c0-4.142-3.358-7.5-7.5-7.5H62.997c-4.142,0-7.5,3.358-7.5,7.5s3.358,7.5,7.5,7.5h128.994   C196.133,322.541,199.491,319.183,199.491,315.041z"/><path d="M49.498,343.539c-4.142,0-7.5,3.358-7.5,7.5s3.358,7.5,7.5,7.5h128.994c4.142,0,7.5-3.358,7.5-7.5s-3.358-7.5-7.5-7.5   H49.498z"/><path d="M185.991,200.371c0-4.142-3.358-7.5-7.5-7.5H49.498c-4.142,0-7.5,3.358-7.5,7.5s3.358,7.5,7.5,7.5h128.994   C182.633,207.871,185.991,204.513,185.991,200.371z"/><path d="M62.997,243.869h128.994c4.142,0,7.5-3.358,7.5-7.5s-3.358-7.5-7.5-7.5H62.997c-4.142,0-7.5,3.358-7.5,7.5   S58.855,243.869,62.997,243.869z"/><path d="M216.135,100.333c0.526,2.63,2.417,4.779,4.958,5.636c0.784,0.264,1.592,0.393,2.395,0.393   c1.801,0,3.572-0.649,4.963-1.876l25.499-22.499c3.106-2.74,3.402-7.48,0.661-10.586c-2.74-3.105-7.479-3.402-10.586-0.661   L228.29,84.624l-0.446-2.232c-0.813-4.061-4.759-6.696-8.826-5.883c-4.062,0.813-6.695,4.764-5.883,8.826L216.135,100.333z"/><path d="M223.867,222.752c0.37,0,0.742-0.027,1.114-0.083c2.652-0.398,4.891-2.183,5.869-4.68l12.411-31.66   c1.512-3.856-0.389-8.208-4.245-9.72c-3.857-1.514-8.208,0.389-9.72,4.245l-7.659,19.538l-1.417-1.782   c-2.577-3.242-7.295-3.782-10.538-1.204c-3.242,2.577-3.782,7.295-1.204,10.538l9.518,11.975   C219.431,221.724,221.601,222.752,223.867,222.752z"/><path d="M224.687,258.6c1.435,1.805,3.604,2.833,5.87,2.833c0.37,0,0.742-0.027,1.114-0.083c2.652-0.398,4.891-2.183,5.869-4.68   l12.411-31.66c1.512-3.856-0.389-8.208-4.245-9.72c-3.858-1.514-8.208,0.389-9.72,4.245l-7.659,19.538l-1.417-1.782   c-2.577-3.242-7.294-3.782-10.538-1.204c-3.242,2.577-3.782,7.295-1.204,10.538L224.687,258.6z"/><path d="M434.71,178.7l-38.241-40.765c-1.361-1.451-3.242-2.301-5.23-2.365c-1.998-0.056-3.92,0.666-5.371,2.026L242.563,272.029   c-0.919,0.862-1.606,1.941-1.997,3.139l-18.072,55.272c-0.852,2.604-0.216,5.464,1.659,7.462c1.437,1.531,3.425,2.369,5.47,2.369   c0.623,0,1.251-0.078,1.871-0.237l56.313-14.508c1.22-0.314,2.341-0.931,3.26-1.793l143.305-134.433   C437.392,186.467,437.544,181.721,434.71,178.7z M241.004,322.094l9.884-30.229l20.914,22.294L241.004,322.094z M286.274,307.662   l-27.978-29.825l132.365-124.17l27.979,29.825L286.274,307.662z"/></g><g transform="matrix(0.11299971491098404 0 0 0.11299971491098404 62.5 237.5)" id="L1_452"><path d="M276.698,270.064c1.838-2.242,2.22-5.343,0.979-7.964s-3.88-4.292-6.779-4.292H7.5c-2.899,0-5.539,1.671-6.779,4.292   s-0.859,5.721,0.979,7.964l33.632,41.019l7.016,23.635c0.945,3.183,3.87,5.366,7.19,5.366h179.322c3.32,0,6.245-2.183,7.19-5.366   l7.016-23.635L276.698,270.064z M255.05,272.809l-22.293,27.189H45.641l-22.292-27.189H255.05z M223.263,325.084H55.135   l-2.994-10.085h174.116L223.263,325.084z"/><path d="M328.682,198.694c19.863,15.013,34.724,36.32,41.845,59.995c0.977,3.246,3.955,5.342,7.179,5.342   c0.715,0,1.443-0.103,2.164-0.32c3.966-1.193,6.215-5.376,5.021-9.343c-8.032-26.701-24.782-50.722-47.165-67.641   c-23.147-17.496-50.721-26.744-79.741-26.744c-4.142,0-7.5,3.358-7.5,7.5s3.358,7.5,7.5,7.5   C283.715,174.983,308.161,183.182,328.682,198.694z"/><path d="M434.979,286.883h-19.613c-2.702-77.041-60.999-140.176-135.916-150.431c1.493-3.109,2.33-6.59,2.33-10.263   c0-13.12-10.674-23.794-23.794-23.794c-13.12,0-23.794,10.674-23.794,23.794c0,3.666,0.835,7.141,2.322,10.246   c-24.611,3.347-47.995,12.447-68.574,26.811c-25.884,18.067-45.559,43.119-56.898,72.446c-1.494,3.864,0.428,8.206,4.291,9.7   c3.861,1.493,8.207-0.427,9.7-4.291c10.258-26.534,28.064-49.202,51.492-65.555c23.959-16.723,52.127-25.563,81.46-25.563   c76.699,0,139.438,60.909,142.381,136.9H278.587c-4.142,0-7.5,3.358-7.5,7.5s3.358,7.5,7.5,7.5h156.392c4.142,0,7.5-3.358,7.5-7.5   S439.121,286.883,434.979,286.883z M249.192,126.189c0-4.849,3.945-8.794,8.794-8.794c4.849,0,8.794,3.945,8.794,8.794   c0,4.849-3.945,8.794-8.794,8.794C253.137,134.983,249.192,131.038,249.192,126.189z"/></g><g transform="matrix(0.14511148631572723 0 0 0.14511148631572723 233.2980194091797 233.31016540527344)" id="L1_453"><path d="M127.339,321.143H15.414l14.693-272.98h196.972l7.604,141.349c0.222,4.136,3.747,7.302,7.893,7.086   c4.136-0.223,7.309-3.756,7.086-7.892L241.676,40.26c-0.214-3.98-3.504-7.097-7.489-7.097H23c-3.985,0-7.275,3.117-7.489,7.097   l-15.5,287.98c-0.11,2.056,0.629,4.067,2.045,5.562c1.417,1.495,3.385,2.341,5.444,2.341h119.839c4.143,0,7.5-3.358,7.5-7.5   S131.482,321.143,127.339,321.143z"/><path d="M71.482,61.035c-4.143,0-7.5,3.358-7.5,7.5v35.124c0,33.911,27.589,61.5,61.5,61.5s61.5-27.589,61.5-61.5V68.535   c0-4.142-3.357-7.5-7.5-7.5s-7.5,3.358-7.5,7.5v35.124c0,25.64-20.859,46.5-46.5,46.5s-46.5-20.86-46.5-46.5V68.535   C78.982,64.393,75.625,61.035,71.482,61.035z"/><path d="M394.809,205.653h-20.816l-4.399-82.893c-0.211-3.982-3.502-7.103-7.489-7.103h-11.999v-7.645   c0-14.807-12.046-26.853-26.853-26.853s-26.854,12.046-26.854,26.853v7.645h-9.808c-3.987,0-7.278,3.121-7.489,7.103l-4.398,82.893   H151.82c-4.143,0-7.5,3.358-7.5,7.5v148.493c0,4.142,3.357,7.5,7.5,7.5h242.988c4.143,0,7.5-3.358,7.5-7.5V213.153   C402.309,209.011,398.951,205.653,394.809,205.653z M311.398,108.013c0-6.536,5.317-11.853,11.854-11.853   c6.535,0,11.853,5.317,11.853,11.853v7.645h-23.706V108.013z M293.703,130.658h61.288l3.98,74.995h-69.248L293.703,130.658z    M387.309,220.653v22.498H159.32v-22.498H387.309z M159.32,354.146v-95.994h227.988v95.994H159.32z"/></g><path d="M343.746,154.841c-12.696,0-24.804,2.558-35.842,7.18l-26.394-51.211h36.89c4.002,0,7.258,3.256,7.258,7.258  s-3.256,7.258-7.258,7.258h-7.871c-4.143,0-7.5,3.358-7.5,7.5s3.357,7.5,7.5,7.5h7.871c12.273,0,22.258-9.985,22.258-22.258  s-9.984-22.258-22.258-22.258h-49.192c-2.615,0-5.042,1.363-6.404,3.596c-1.361,2.233-1.461,5.015-0.263,7.34l13.125,25.467H167.423  l-10.92-21.403h17.269c4.143,0,7.5-3.358,7.5-7.5s-3.357-7.5-7.5-7.5h-49.193c-4.143,0-7.5,3.358-7.5,7.5s3.357,7.5,7.5,7.5h15.084  l14.576,28.568l-17.132,26.543c-13.113-7.065-28.101-11.08-44.011-11.08C41.763,154.841,0,196.603,0,247.936  c0,51.333,41.763,93.096,93.096,93.096c48.808,0,88.961-37.757,92.793-85.596h22.007l-8.549,27.818h-4.922  c-4.143,0-7.5,3.358-7.5,7.5s3.357,7.5,7.5,7.5h27c4.143,0,7.5-3.358,7.5-7.5s-3.357-7.5-7.5-7.5h-6.386l9.869-32.114l62.406-96.327  l7.269,14.103c-26.357,16.458-43.933,45.723-43.933,79.02c0,51.333,41.763,93.096,93.097,93.096  c51.333,0,93.096-41.763,93.096-93.096C436.842,196.603,395.079,154.841,343.746,154.841z M162.121,154.826l43.678,85.61h-19.911  c-2.162-26.985-15.882-50.758-36.193-66.359L162.121,154.826z M170.824,240.436h-63.96l34.661-53.699  C157.734,199.592,168.745,218.724,170.824,240.436z M93.096,326.032C50.033,326.032,15,290.999,15,247.936  c0-43.062,35.033-78.096,78.096-78.096c12.914,0,25.095,3.17,35.837,8.743l-42.139,65.285c-1.489,2.307-1.598,5.244-0.284,7.655  c1.313,2.411,3.84,3.912,6.586,3.912h77.728C167.036,294.992,133.628,326.032,93.096,326.032z M218.819,232.949l-43.743-85.737  h99.289L218.819,232.949z M343.746,326.032c-43.063,0-78.097-35.034-78.097-78.096c0-27.498,14.298-51.704,35.838-65.623  l35.592,69.059c1.332,2.583,3.954,4.065,6.673,4.065c1.157,0,2.331-0.269,3.43-0.835c3.683-1.897,5.129-6.42,3.231-10.103  l-35.603-69.079c8.956-3.586,18.714-5.581,28.936-5.581c43.063,0,78.096,35.034,78.096,78.096  C421.842,290.999,386.809,326.032,343.746,326.032z" transform="matrix(0.15992650389671326 -0.043979790061712265 0.043979790061712265 0.15992650389671326 305.4720764160156 149.65628051757812)" id="L1_455"/></defs><g fi:class="KUsePattern"><pattern id="pattern_L1_444" width="350" height="350" patternUnits="userSpaceOnUse"><use xlink:href="#L1_444" x="-350" y="-350"/><use xlink:href="#L1_444" x="0" y="-350"/><use xlink:href="#L1_444" x="350" y="-350"/><use xlink:href="#L1_444" x="-350" y="0"/><use xlink:href="#L1_444" x="0" y="0"/><use xlink:href="#L1_444" x="350" y="0"/><use xlink:href="#L1_444" x="-350" y="350"/><use xlink:href="#L1_444" x="0" y="350"/><use xlink:href="#L1_444" x="350" y="350"/></pattern><rect x="0" y="0" width="100%" height="100%" fill="url(#pattern_L1_444)"/></g><g fi:class="KUsePattern"><pattern id="pattern_L1_445" width="350" height="350" patternUnits="userSpaceOnUse"><use xlink:href="#L1_445" x="-350" y="-350"/><use xlink:href="#L1_445" x="0" y="-350"/><use xlink:href="#L1_445" x="350" y="-350"/><use xlink:href="#L1_445" x="-350" y="0"/><use xlink:href="#L1_445" x="0" y="0"/><use xlink:href="#L1_445" x="350" y="0"/><use xlink:href="#L1_445" x="-350" y="350"/><use xlink:href="#L1_445" x="0" y="350"/><use xlink:href="#L1_445" x="350" y="350"/></pattern><rect x="0" y="0" width="100%" height="100%" fill="url(#pattern_L1_445)"/></g><g fi:class="KUsePattern"><pattern id="pattern_L1_446" width="350" height="350" patternUnits="userSpaceOnUse"><use xlink:href="#L1_446" x="-350" y="-350"/><use xlink:href="#L1_446" x="0" y="-350"/><use xlink:href="#L1_446" x="350" y="-350"/><use xlink:href="#L1_446" x="-350" y="0"/><use xlink:href="#L1_446" x="0" y="0"/><use xlink:href="#L1_446" x="350" y="0"/><use xlink:href="#L1_446" x="-350" y="350"/><use xlink:href="#L1_446" x="0" y="350"/><use xlink:href="#L1_446" x="350" y="350"/></pattern><rect x="0" y="0" width="100%" height="100%" fill="url(#pattern_L1_446)"/></g><g fi:class="KUsePattern"><pattern id="pattern_L1_447" width="350" height="350" patternUnits="userSpaceOnUse"><use xlink:href="#L1_447" x="-350" y="-350"/><use xlink:href="#L1_447" x="0" y="-350"/><use xlink:href="#L1_447" x="350" y="-350"/><use xlink:href="#L1_447" x="-350" y="0"/><use xlink:href="#L1_447" x="0" y="0"/><use xlink:href="#L1_447" x="350" y="0"/><use xlink:href="#L1_447" x="-350" y="350"/><use xlink:href="#L1_447" x="0" y="350"/><use xlink:href="#L1_447" x="350" y="350"/></pattern><rect x="0" y="0" width="100%" height="100%" fill="url(#pattern_L1_447)"/></g><g fi:class="KUsePattern"><pattern id="pattern_L1_448" width="350" height="350" patternUnits="userSpaceOnUse"><use xlink:href="#L1_448" x="-350" y="-350"/><use xlink:href="#L1_448" x="0" y="-350"/><use xlink:href="#L1_448" x="350" y="-350"/><use xlink:href="#L1_448" x="-350" y="0"/><use xlink:href="#L1_448" x="0" y="0"/><use xlink:href="#L1_448" x="350" y="0"/><use xlink:href="#L1_448" x="-350" y="350"/><use xlink:href="#L1_448" x="0" y="350"/><use xlink:href="#L1_448" x="350" y="350"/></pattern><rect x="0" y="0" width="100%" height="100%" fill="url(#pattern_L1_448)"/></g><g fi:class="KUsePattern"><pattern id="pattern_L1_449" width="350" height="350" patternUnits="userSpaceOnUse"><use xlink:href="#L1_449" x="-350" y="-350"/><use xlink:href="#L1_449" x="0" y="-350"/><use xlink:href="#L1_449" x="350" y="-350"/><use xlink:href="#L1_449" x="-350" y="0"/><use xlink:href="#L1_449" x="0" y="0"/><use xlink:href="#L1_449" x="350" y="0"/><use xlink:href="#L1_449" x="-350" y="350"/><use xlink:href="#L1_449" x="0" y="350"/><use xlink:href="#L1_449" x="350" y="350"/></pattern><rect x="0" y="0" width="100%" height="100%" fill="url(#pattern_L1_449)"/></g><g fi:class="KUsePattern"><pattern id="pattern_L1_451" width="350" height="350" patternUnits="userSpaceOnUse"><use xlink:href="#L1_451" x="-350" y="-350"/><use xlink:href="#L1_451" x="0" y="-350"/><use xlink:href="#L1_451" x="350" y="-350"/><use xlink:href="#L1_451" x="-350" y="0"/><use xlink:href="#L1_451" x="0" y="0"/><use xlink:href="#L1_451" x="350" y="0"/><use xlink:href="#L1_451" x="-350" y="350"/><use xlink:href="#L1_451" x="0" y="350"/><use xlink:href="#L1_451" x="350" y="350"/></pattern><rect x="0" y="0" width="100%" height="100%" fill="url(#pattern_L1_451)"/></g><g fi:class="KUsePattern"><pattern id="pattern_L1_452" width="350" height="350" patternUnits="userSpaceOnUse"><use xlink:href="#L1_452" x="-350" y="-350"/><use xlink:href="#L1_452" x="0" y="-350"/><use xlink:href="#L1_452" x="350" y="-350"/><use xlink:href="#L1_452" x="-350" y="0"/><use xlink:href="#L1_452" x="0" y="0"/><use xlink:href="#L1_452" x="350" y="0"/><use xlink:href="#L1_452" x="-350" y="350"/><use xlink:href="#L1_452" x="0" y="350"/><use xlink:href="#L1_452" x="350" y="350"/></pattern><rect x="0" y="0" width="100%" height="100%" fill="url(#pattern_L1_452)"/></g><g fi:class="KUsePattern"><pattern id="pattern_L1_455" width="350" height="350" patternUnits="userSpaceOnUse"><use xlink:href="#L1_455" x="-350" y="-350"/><use xlink:href="#L1_455" x="0" y="-350"/><use xlink:href="#L1_455" x="350" y="-350"/><use xlink:href="#L1_455" x="-350" y="0"/><use xlink:href="#L1_455" x="0" y="0"/><use xlink:href="#L1_455" x="350" y="0"/><use xlink:href="#L1_455" x="-350" y="350"/><use xlink:href="#L1_455" x="0" y="350"/><use xlink:href="#L1_455" x="350" y="350"/></pattern><rect x="0" y="0" width="100%" height="100%" fill="url(#pattern_L1_455)"/></g><g fi:class="KUsePattern"><pattern id="pattern_L1_453" width="350" height="350" patternUnits="userSpaceOnUse"><use xlink:href="#L1_453" x="-350" y="-350"/><use xlink:href="#L1_453" x="0" y="-350"/><use xlink:href="#L1_453" x="350" y="-350"/><use xlink:href="#L1_453" x="-350" y="0"/><use xlink:href="#L1_453" x="0" y="0"/><use xlink:href="#L1_453" x="350" y="0"/><use xlink:href="#L1_453" x="-350" y="350"/><use xlink:href="#L1_453" x="0" y="350"/><use xlink:href="#L1_453" x="350" y="350"/></pattern><rect x="0" y="0" width="100%" height="100%" fill="url(#pattern_L1_453)"/></g></svg>