<svg id="Layer_1" data-name="Layer 1" xmlns="http://www.w3.org/2000/svg" xmlns:xlink="http://www.w3.org/1999/xlink" viewBox="0 0 874.15 647.37"><defs><style>.cls-1{fill:#3cff40;stroke:#f9ff0e;opacity:0.43;}.cls-1,.cls-2,.cls-3{stroke-miterlimit:10;stroke-width:0.9px;}.cls-2,.cls-3{fill:#f9ff0e;stroke:#ff9e3e;}.cls-2{opacity:0.32;}.cls-3{opacity:0.45;}.cls-4{fill:url(#radial-gradient);}.cls-5{fill:url(#radial-gradient-2);}.cls-6{fill:#b61000;}.cls-7{fill:#fcfaa2;}.cls-8{fill:#fff;}.cls-9{fill:#510802;}</style><radialGradient id="radial-gradient" cx="431.63" cy="327.1" r="283.92" gradientTransform="translate(17.74 -32.83) rotate(1.75)" gradientUnits="userSpaceOnUse"><stop offset="0" stop-color="#ffca2a"/><stop offset="0.37" stop-color="#ffca2c" stop-opacity="0.99"/><stop offset="0.51" stop-color="#ffcc31" stop-opacity="0.97"/><stop offset="0.6" stop-color="#ffce3b" stop-opacity="0.92"/><stop offset="0.68" stop-color="#ffd249" stop-opacity="0.85"/><stop offset="0.75" stop-color="#ffd65c" stop-opacity="0.77"/><stop offset="0.8" stop-color="#ffdc72" stop-opacity="0.66"/><stop offset="0.86" stop-color="#ffe38d" stop-opacity="0.53"/><stop offset="0.91" stop-color="#ffebad" stop-opacity="0.39"/><stop offset="0.95" stop-color="#fff4d1" stop-opacity="0.22"/><stop offset="0.99" stop-color="#fffdf7" stop-opacity="0.04"/><stop offset="1" stop-color="#fff" stop-opacity="0"/></radialGradient><radialGradient id="radial-gradient-2" cx="439.19" cy="307.29" r="274.47" gradientUnits="userSpaceOnUse"><stop offset="0" stop-color="#f7ff15"/><stop offset="0.05" stop-color="#f8ff39" stop-opacity="0.98"/><stop offset="0.15" stop-color="#faff75" stop-opacity="0.95"/><stop offset="0.24" stop-color="#fcffa6" stop-opacity="0.92"/><stop offset="0.33" stop-color="#fdffcd" stop-opacity="0.9"/><stop offset="0.42" stop-color="#feffe9" stop-opacity="0.88"/><stop offset="0.5" stop-color="#fffff9" stop-opacity="0.87"/><stop offset="0.57" stop-color="#fff" stop-opacity="0.87"/><stop offset="0.61" stop-color="#fff" stop-opacity="0.85"/><stop offset="0.67" stop-color="#fff" stop-opacity="0.78"/><stop offset="0.74" stop-color="#fff" stop-opacity="0.67"/><stop offset="0.81" stop-color="#fff" stop-opacity="0.52"/><stop offset="0.89" stop-color="#fff" stop-opacity="0.33"/><stop offset="0.97" stop-color="#fff" stop-opacity="0.1"/><stop offset="1" stop-color="#fff" stop-opacity="0"/></radialGradient></defs><title>sticky-notes-welcome-screen</title><rect class="cls-1" x="292.92" y="62.12" width="217.93" height="217.93" transform="translate(-10.31 26.59) rotate(-3.74)"/><rect class="cls-1" x="294.97" y="68.24" width="217.93" height="217.93" transform="translate(-22.9 65.94) rotate(-9.08)"/><rect class="cls-1" x="373.88" y="163.48" width="217.93" height="217.93" transform="translate(-58.6 153.27) rotate(-17.02)"/><rect class="cls-2" x="203.81" y="179.81" width="217.93" height="217.93" transform="translate(63.57 -56.36) rotate(11.45)"/><rect class="cls-3" x="13.81" y="13.81" width="217.93" height="217.93" transform="matrix(0.99, -0.13, 0.13, 0.99, -14.99, 17.09)"/><rect class="cls-1" x="171.15" y="291.37" width="217.93" height="217.93" transform="translate(-45.88 36.38) rotate(-6.87)"/><rect class="cls-2" x="343.95" y="329.47" width="217.93" height="217.93" transform="translate(-65.58 79.94) rotate(-9.41)"/><rect class="cls-2" x="358.23" y="343.76" width="217.93" height="217.93" transform="translate(-92.75 121.53) rotate(-13.5)"/><rect class="cls-2" x="372.52" y="358.04" width="217.93" height="217.93" transform="translate(-120.92 172) rotate(-18.03)"/><rect class="cls-2" x="383.4" y="353.96" width="217.93" height="217.93" transform="matrix(0.91, -0.41, 0.41, 0.91, -146.21, 241.68)"/><rect class="cls-1" x="502.45" y="192.73" width="217.93" height="217.93" transform="translate(42.94 -74.72) rotate(7.25)"/><rect class="cls-1" x="610.45" y="360.73" width="217.93" height="217.93" transform="translate(542.84 -371.13) rotate(45)"/><rect class="cls-1" x="258.91" y="417.23" width="217.93" height="217.93" transform="translate(62.45 -38.54) rotate(6.55)"/><polygon class="cls-4" points="290.88 187.79 332.32 273.51 222.77 195.93 325.71 316.93 147.01 348.89 313.64 344.63 127.84 425.01 278.51 392.19 138.25 513.25 301.01 416.98 266.81 530.28 316.31 437.03 320.1 561.84 358.12 402.82 381.81 508.8 405.67 409.16 436.8 477.47 446.84 383.49 559.13 514.89 497.88 355.68 629.32 452.49 558.39 337.94 744.88 374.64 578.72 302.21 707.8 302.41 566.32 279.38 701.75 255.46 552 258.37 666.25 192.64 537.62 239.22 609.85 140.4 513.89 219.79 515.73 98.24 478.89 201.88 464.44 87.83 446.03 209.66 401.3 71.21 415.94 233.22 356.8 95.26 377.14 208.78 283.4 44.35 351.3 253.28 290.88 187.79"/><polygon class="cls-5" points="292.35 196.19 334.93 277.8 226.78 206.07 329.82 319.96 158.08 356.11 318.97 347.07 141.81 430.23 286.43 394.07 154.47 515.2 308.9 417.37 279.2 527.85 324.28 436.29 331.63 556.77 363.68 401.99 389.7 503.7 409.8 406.72 441.9 471.81 448.83 380.7 561.21 504.35 497.32 352.31 627.2 441.98 555.28 333.39 736.56 363.34 573.87 298.26 698.6 294.65 561.21 276.57 691.37 249.46 546.75 256.69 655.22 189.8 532.29 238.61 599.17 140.99 508.79 220.53 506.98 103.03 474.44 204.26 457.11 94.48 442.92 212.75 395.61 80.29 414.53 236.41 353.32 104.83 376.32 213.94 280.88 57.81 352.67 257.7 292.35 196.19"/><path class="cls-6" d="M294.09,346c-3,0-4.89-1.85-5.1-5.07a6.43,6.43,0,0,1,2.24-5.11,14.91,14.91,0,0,1,4.25-3,18,18,0,0,1,3.35-.91,14.58,14.58,0,0,0,2.46-.61,63.6,63.6,0,0,0,11.86-7.13c4.46-3.29,6.29-5.57,7-7-.41-.68-2.21-1.65-7-2-7.47-.53-12.48-1.36-15.3-2.52a7.93,7.93,0,0,1-5.26-7.13c-.47-7.34,2.79-15,9.7-22.76s12.45-12.33,17.11-14.26a15.27,15.27,0,0,1,5.62-1.4,5.8,5.8,0,0,1,1.8.27c1.43.47,3.18,1.85,3.43,5.76a6.63,6.63,0,0,1-1.57,4.47,7.66,7.66,0,0,1-2.81,2.58,5.76,5.76,0,0,1-2.21.32l-.83,0h-.25a5.9,5.9,0,0,0-1.28.08c-.81.34-3.23,1.84-9.72,7.82-5.85,5.41-6.94,8.67-6.82,10.45a2.65,2.65,0,0,0,2,2.49c1.22.47,3.91,1.08,9.84,1.29a29,29,0,0,1,10.37,2,8.1,8.1,0,0,1,5,7.35c.36,5.8-3.16,11.82-10.77,18.39a87,87,0,0,1-21,13.95,15.6,15.6,0,0,1-6.13,1.65Z"/><path class="cls-7" d="M325,269a4,4,0,0,1,1.25.18q2,.65,2.21,4.18a4.9,4.9,0,0,1-1.2,3.28,6.53,6.53,0,0,1-2.08,2,4.43,4.43,0,0,1-1.53.18l-.75,0h-.33a5.9,5.9,0,0,0-1.9.19q-2.6,1.08-10.29,8.17T303,299a4.41,4.41,0,0,0,3.13,4q2.95,1.14,10.41,1.41a27.17,27.17,0,0,1,9.72,1.88,6.32,6.32,0,0,1,4,5.83q.48,7.76-10.16,16.93a84.8,84.8,0,0,1-20.56,13.67,14.11,14.11,0,0,1-5.4,1.5q-3.11,0-3.33-3.4a4.73,4.73,0,0,1,1.7-3.73,13.1,13.1,0,0,1,3.74-2.61,17,17,0,0,1,3-.79A16.43,16.43,0,0,0,302,333a65,65,0,0,0,12.19-7.32q6.45-4.77,7.83-8.24-.21-3.31-8.76-4-10.85-.77-14.76-2.39a6.16,6.16,0,0,1-4.16-5.61q-.66-10.3,9.25-21.47t16.46-13.8A13.77,13.77,0,0,1,325,269m0-3.55a16.93,16.93,0,0,0-6.3,1.53c-4.92,2-10.73,6.85-17.75,14.71-7.24,8.14-10.65,16.23-10.15,24.06a9.72,9.72,0,0,0,6.34,8.66c3,1.24,8.19,2.11,15.86,2.66a20.14,20.14,0,0,1,4.66.78,30.19,30.19,0,0,1-5.59,5,61.82,61.82,0,0,1-11.52,6.93,17.21,17.21,0,0,1-2.08.49,19.18,19.18,0,0,0-3.73,1,16.68,16.68,0,0,0-4.77,3.31,8.16,8.16,0,0,0-2.78,6.5c.26,4.15,2.9,6.73,6.87,6.73a17.25,17.25,0,0,0,6.85-1.81,88.7,88.7,0,0,0,21.44-14.23c8.05-7,11.78-13.44,11.38-19.83a9.91,9.91,0,0,0-6.07-8.86,30.3,30.3,0,0,0-11-2.17c-6-.21-8.38-.83-9.28-1.17s-.85-.57-.87-.95c-.06-.92.43-3.65,6.26-9s8.27-7,9-7.4c.14,0,.37,0,.75,0h.24l.84,0a7.37,7.37,0,0,0,2.89-.45,9.07,9.07,0,0,0,3.53-3.14,8.34,8.34,0,0,0,1.93-5.67c-.31-4.9-2.69-6.69-4.64-7.33a7.57,7.57,0,0,0-2.36-.36Z"/><path class="cls-6" d="M351.92,319.35c-3.84,0-8.55-2.09-9.16-12.06-.22-3.63.3-9.39,1.61-17.59,1-6.44,1.44-9.92,1.62-11.8l-4,2-.11.05a12,12,0,0,1-4.54,1.1h0c-2.9,0-4.68-1.84-4.88-5.05a5.82,5.82,0,0,1,4-6l10.7-4.41a2.29,2.29,0,0,0,1-1c.15-.25.71-1.47,1.83-6.92.84-4.06,1.56-8.08,2.17-11.95.71-4.53,2.61-7.45,5.66-8.66a6.94,6.94,0,0,1,2.54-.54,4.47,4.47,0,0,1,2.77.91,4.9,4.9,0,0,1,2.12,3.64c0,.4.06.94-1.46,8.44l-1.65,8.3c2.35-1.17,4.62-2.33,6.75-3.45,3.15-1.62,5.81-2.88,7.93-3.73,3.3-1.33,4.61-1.48,5.31-1.48a3.29,3.29,0,0,1,.84.1c.87.23,2.35,1,2.51,3.64.21,3.48-2,6.34-6.62,8.49-4.93,2.31-9.54,4.63-13.7,6.88a54.62,54.62,0,0,0-6.06,3.56c-.21.75-.76,3.39-2.18,12.59-1.58,10.23-1.8,14.13-1.71,15.6.29,4.64,1.19,5.36,1.23,5.39a1.28,1.28,0,0,0,.81.22,5.56,5.56,0,0,0,2.06-.53c1.83-.79,5.28-3.36,11.29-11.17,2.15-2.92,3.83-4.58,5.28-5.18a4.65,4.65,0,0,1,1.81-.41c1.36,0,2.87.86,3,3.29.18,2.89-2,7.19-7,13.52-4.72,6.06-9.78,10.29-15,12.57A17.05,17.05,0,0,1,351.92,319.35Z"/><path class="cls-7" d="M360.33,238.32a2.72,2.72,0,0,1,1.69.55,3.18,3.18,0,0,1,1.42,2.33q0,.71-1.42,8L359.67,261q5.33-2.58,10-5.06t7.77-3.66a15.37,15.37,0,0,1,4.64-1.35,1.57,1.57,0,0,1,.39,0q1.08.28,1.19,2,.25,4-5.61,6.78-7.51,3.52-13.8,6.92t-6.75,4.14q-.46.73-2.4,13.3t-1.73,16q.34,5.52,2,6.71a3.06,3.06,0,0,0,1.86.57,7.15,7.15,0,0,0,2.76-.67q4.45-1.91,12-11.72,2.9-3.93,4.56-4.63a3,3,0,0,1,1.12-.27q1.15,0,1.25,1.62.22,3.57-6.62,12.32t-14.34,12a15.5,15.5,0,0,1-6,1.5q-6.75,0-7.39-10.39-.32-5.19,1.59-17.2t1.73-14.11a.43.43,0,0,0-.48-.45,2.26,2.26,0,0,0-.81.21l-5.37,2.7a10.48,10.48,0,0,1-3.86,1q-2.9,0-3.11-3.39-.19-3,2.88-4.23l10.7-4.41a4,4,0,0,0,1.86-1.75q.77-1.3,2-7.46t2.18-12q.91-5.83,4.56-7.28a5.16,5.16,0,0,1,1.89-.41m0-3.55a8.69,8.69,0,0,0-3.2.66c-3.67,1.46-5.94,4.83-6.75,10-.6,3.83-1.32,7.83-2.15,11.87-1.05,5.09-1.55,6.23-1.64,6.41a1.33,1.33,0,0,1-.2.26l-10.64,4.39a7.57,7.57,0,0,0-5.07,7.73c.31,5,3.64,6.71,6.65,6.71a13.74,13.74,0,0,0,5.22-1.24l.23-.11,1.07-.54c-.25,2-.64,4.68-1.24,8.47-1.33,8.33-1.86,14.21-1.63,18,.74,11.94,7.17,13.72,10.93,13.72a18.76,18.76,0,0,0,7.44-1.8c5.52-2.39,10.82-6.8,15.72-13.11,5.29-6.78,7.57-11.32,7.36-14.71s-2.55-5-4.79-5a6.38,6.38,0,0,0-2.5.55c-1.77.74-3.62,2.52-6,5.77-6.06,7.88-9.22,10-10.56,10.6a5.46,5.46,0,0,1-1,.35,15.62,15.62,0,0,1-.6-3.9c-.07-1.13.06-4.62,1.69-15.22,1.16-7.54,1.73-10.57,2-11.79.68-.45,2.17-1.35,5.34-3.07,4.12-2.23,8.7-4.53,13.61-6.83,6.64-3.1,7.82-7.26,7.64-10.2-.24-4-3-5-3.84-5.25a5.11,5.11,0,0,0-1.28-.16,17.1,17.1,0,0,0-6,1.61c-2.17.88-4.88,2.15-8.07,3.79l-3.5,1.82.94-4.73c1.56-7.72,1.52-8.29,1.49-8.89a6.62,6.62,0,0,0-2.82-4.94,6.29,6.29,0,0,0-3.84-1.27Z"/><path class="cls-6" d="M403.8,228.17c-1,0-2.28-.49-3.1-2.84a9,9,0,0,0-.52-1,13.15,13.15,0,0,1-2-5.87c-.11-1.79.74-3.82,2.6-6.21a14.31,14.31,0,0,1,6.14-4.74,7.17,7.17,0,0,1,2.57-.46,9.38,9.38,0,0,1,1.88.2c2.85.59,3.37,2.18,3.42,3.07a25.88,25.88,0,0,1-1,6.55,14.73,14.73,0,0,1-4.28,7.76,17.16,17.16,0,0,1-4.71,3.35,2.78,2.78,0,0,1-1,.2Z"/><path class="cls-7" d="M409.5,208.81A7.55,7.55,0,0,1,411,209q1.94.4,2,1.44a25.29,25.29,0,0,1-.94,6,13,13,0,0,1-3.75,6.85,16.14,16.14,0,0,1-4.16,3,1,1,0,0,1-.37.07q-.85,0-1.43-1.66a10.38,10.38,0,0,0-.67-1.32,11.36,11.36,0,0,1-1.75-5.08q-.12-2,2.23-5a12.51,12.51,0,0,1,5.38-4.17,5.38,5.38,0,0,1,1.94-.34m0-3.55a8.94,8.94,0,0,0-3.2.57,16,16,0,0,0-6.91,5.31c-2.14,2.75-3.11,5.17-3,7.41a14.89,14.89,0,0,0,2.24,6.68,7.07,7.07,0,0,1,.4.78c1.24,3.41,3.5,3.92,4.74,3.92a4.55,4.55,0,0,0,1.66-.32,18.68,18.68,0,0,0,5.25-3.69,16.46,16.46,0,0,0,4.82-8.66,26.82,26.82,0,0,0,1-7.07c-.07-1.13-.68-3.84-4.83-4.7a11.14,11.14,0,0,0-2.24-.24Z"/><path class="cls-6" d="M395.65,301.7c-3.32,0-5.18-2.93-5.52-8.71-.37-6.13.38-16.47,2.23-30.73a69.33,69.33,0,0,0,.83-8.69,15.25,15.25,0,0,1,1-6.58,7.61,7.61,0,0,1,4.24-4.55,9.8,9.8,0,0,1,3.61-.8A5.48,5.48,0,0,1,404,242a4,4,0,0,1,2.85,3.64,18.21,18.21,0,0,1-.53,4.67c-2.05,9.62-3.29,16.49-3.68,20.42a86,86,0,0,0-.13,13.44,30.3,30.3,0,0,0,1.51,7.49,7.38,7.38,0,0,1,.38,1.83c.06,1.08-.52,2.33-1.94,4.19a10.79,10.79,0,0,1-4.26,3.49,6.42,6.42,0,0,1-2.5.56Z"/><path class="cls-7" d="M402,243.41a3.7,3.7,0,0,1,1.31.22,2.29,2.29,0,0,1,1.7,2.08,16.74,16.74,0,0,1-.49,4.2q-3.12,14.61-3.71,20.61a87.24,87.24,0,0,0-.14,13.73,31.89,31.89,0,0,0,1.59,7.94,5.73,5.73,0,0,1,.3,1.38q.05.88-1.58,3a9,9,0,0,1-3.55,2.94,4.65,4.65,0,0,1-1.8.42q-3.33,0-3.75-7-.54-9.08,2.21-30.4a75.71,75.71,0,0,0,.84-9,13.43,13.43,0,0,1,.87-5.82,5.89,5.89,0,0,1,3.25-3.56,8.17,8.17,0,0,1,3-.67m0-3.55a11.52,11.52,0,0,0-4.27.93,9.36,9.36,0,0,0-5.23,5.55,17,17,0,0,0-1.11,7.33,69.54,69.54,0,0,1-.82,8.37c-1.88,14.56-2.62,24.72-2.24,31.05.51,8.58,4.25,10.38,7.29,10.38a8.17,8.17,0,0,0,3.19-.7,12.52,12.52,0,0,0,5-4c1.73-2.25,2.4-3.81,2.3-5.37a9.12,9.12,0,0,0-.46-2.26,28.53,28.53,0,0,1-1.42-7.06,84.12,84.12,0,0,1,.13-13.16c.38-3.86,1.61-10.66,3.65-20.23a19.81,19.81,0,0,0,.56-5.15,5.8,5.8,0,0,0-4-5.19,7.25,7.25,0,0,0-2.55-.44Z"/><path class="cls-6" d="M428.65,286.87a10.77,10.77,0,0,1-5.24-1.25c-3.51-1.93-5.45-5.78-5.79-11.44-.52-8.81,2.64-19.63,9.38-32.17,6.89-12.74,13.48-20.19,20.14-22.76a9.62,9.62,0,0,1,3.46-.68A8.53,8.53,0,0,1,456.5,221a13.29,13.29,0,0,1,2.92,15.23c-1,2.16-2.17,3.46-3.52,4a4.71,4.71,0,0,1-1.73.35c-2.35,0-4.11-1.83-5.21-5.45-.9-2.84-1.74-3.42-1.91-3.42a.5.5,0,0,0-.17,0c-2.16.85-5.85,4.33-11.13,16.13-4.31,9.68-6.34,17.22-6,22.43.2,3.36,1.6,3.82,3.1,3.82a13.79,13.79,0,0,0,5-1.25c4.81-2,10.52-6.54,17-13.54,2.57-2.8,4.44-4.38,5.86-5a4,4,0,0,1,1.51-.33c1.21,0,2.67.79,2.8,3,.12,2-.83,5.52-9.27,14.27-6.13,6.39-12.36,10.93-18.5,13.49A22.6,22.6,0,0,1,428.65,286.87Z"/><path class="cls-7" d="M450.6,220.34a6.79,6.79,0,0,1,4.7,2,11.52,11.52,0,0,1,2.52,13.18q-1.21,2.57-2.56,3.1a3,3,0,0,1-1.08.22q-2.23,0-3.52-4.19-1.48-4.67-3.6-4.67a2.23,2.23,0,0,0-.81.16q-5.42,2.12-12.1,17.05T428,270.45q.32,5.49,4.87,5.49a15.39,15.39,0,0,0,5.64-1.38q7.63-3.14,17.59-14,3.5-3.82,5.22-4.51a2.34,2.34,0,0,1,.85-.2q.95,0,1,1.35.21,3.63-8.78,12.94t-17.9,13.08a20.79,20.79,0,0,1-7.82,1.86,9,9,0,0,1-4.39-1q-4.42-2.44-4.87-10-.75-12.74,9.17-31.22t19.22-22a7.82,7.82,0,0,1,2.82-.56m0-3.55a11.38,11.38,0,0,0-4.1.8c-7.07,2.74-14,10.45-21.06,23.57-6.91,12.84-10.13,24-9.59,33.12.37,6.31,2.63,10.65,6.7,12.89a12.53,12.53,0,0,0,6.1,1.47,24,24,0,0,0,9.18-2.14c6.37-2.65,12.79-7.32,19.1-13.9,7-7.31,10-12,9.76-15.6a4.61,4.61,0,0,0-4.57-4.69,5.76,5.76,0,0,0-2.18.45c-1.71.69-3.71,2.35-6.51,5.4-6.26,6.81-11.76,11.22-16.33,13.1a11.84,11.84,0,0,1-4.29,1.12c-.72,0-1.2,0-1.33-2.15-.29-4.92,1.69-12.19,5.89-21.61,4.45-10,7.55-13.44,9.22-14.66a12.61,12.61,0,0,1,.68,1.74c1.68,5.5,4.68,6.66,6.9,6.66a6.49,6.49,0,0,0,2.38-.47c1.79-.71,3.25-2.31,4.47-4.89a15.07,15.07,0,0,0-3.32-17.29,10.25,10.25,0,0,0-7.11-2.94Z"/><path class="cls-6" d="M477.46,268a4.57,4.57,0,0,1-2.06-.46,4,4,0,0,1-2.36-3.37c0-.81,0-2.63,1-9,1-6.54,1.71-15.24,2.22-25.86,1.19-25.79,2.39-40.23,3.65-44.14,1.38-4.26,3.65-7,6.76-8.13a4.27,4.27,0,0,1,1.46-.27,3.82,3.82,0,0,1,2.76,1.21,6.39,6.39,0,0,1,1.62,4.25c.15,2.7-.65,9.89-2.46,22-1.45,9.71-2.47,19.16-3.05,28.15,1.28-1.61,3-3.79,5.42-6.74,5.29-6.51,8.83-11,10.84-13.72,7.9-10.65,13.63-16.53,17.53-18a7.86,7.86,0,0,1,2.72-.56c2.32,0,3.8,1.54,3.94,4.13.18,3.22-1.27,6.17-4.31,8.79-3.35,2.87-7.84,7.28-13.35,13.11-5.87,6.24-7.32,8.71-7.67,9.59a40,40,0,0,0,5.53,3.51,43.27,43.27,0,0,0,10.65,4.58,14,14,0,0,0,3.22.39,12.47,12.47,0,0,0,4.57-.87l1.68-.71a4.31,4.31,0,0,1,1.74-.42,2.6,2.6,0,0,1,2.62,2.67c.1,1.85-.9,4-3.06,6.51a20.29,20.29,0,0,1-8.13,5.6,12.54,12.54,0,0,1-4.65.9,12.94,12.94,0,0,1-2.58-.26c-2.38-.49-6.36-2.47-12.15-6.07a84.87,84.87,0,0,0-8.11-5,2.91,2.91,0,0,0-1.13-.32h-.05a36.91,36.91,0,0,0-2.89,3.37c-2.55,3.19-2.76,4.13-2.78,4.23-.05.36-.14,2,.28,9.48l.13,2.22a7.45,7.45,0,0,1-2,5.08,11.69,11.69,0,0,1-4.57,3.49A7.67,7.67,0,0,1,477.46,268Z"/><path class="cls-7" d="M488.09,178.52a2.05,2.05,0,0,1,1.5.68,4.69,4.69,0,0,1,1.11,3.11q.22,3.83-2.44,21.64A333.37,333.37,0,0,0,484.88,238q.63-1.07,8.89-11.26,7.82-9.63,10.89-13.78,11.44-15.43,16.72-17.37a6.22,6.22,0,0,1,2.1-.45q2,0,2.17,2.45.22,4-3.69,7.35-5.09,4.35-13.48,13.23T500.2,229.4q.05.94,6.54,4.63a44.8,44.8,0,0,0,11.12,4.76,15.68,15.68,0,0,0,3.63.44,14.17,14.17,0,0,0,5.22-1l1.72-.72a2.71,2.71,0,0,1,1-.28q.8,0,.85,1,.11,2-2.64,5.26a18.46,18.46,0,0,1-7.43,5.1,10.72,10.72,0,0,1-4,.78,11.13,11.13,0,0,1-2.22-.23q-3.2-.65-11.57-5.84a89.89,89.89,0,0,0-8.32-5.15,4.64,4.64,0,0,0-1.86-.47,2.23,2.23,0,0,0-.82.15q-.57.23-3.5,3.89t-3.15,5.07a84.59,84.59,0,0,0,.26,9.85l.12,2.22a5.76,5.76,0,0,1-1.64,3.85,9.9,9.9,0,0,1-3.87,3,6,6,0,0,1-2.23.51,2.81,2.81,0,0,1-1.27-.28,2.19,2.19,0,0,1-1.38-1.88,60.68,60.68,0,0,1,.95-8.63q1.46-10,2.24-26,1.76-38,3.56-43.68t5.68-7a2.49,2.49,0,0,1,.85-.16m0-3.55h0a6,6,0,0,0-2.07.38c-3.65,1.33-6.29,4.44-7.84,9.25-.84,2.59-2.13,10-3.73,44.6-.52,10.55-1.26,19.2-2.21,25.69s-1,8.38-1,9.35a5.74,5.74,0,0,0,3.35,4.86,6.33,6.33,0,0,0,2.84.65A9.4,9.4,0,0,0,481,269a13.45,13.45,0,0,0,5.27-4,9.13,9.13,0,0,0,2.45-6.31l-.12-2.22c-.37-6.58-.34-8.48-.31-9a18.8,18.8,0,0,1,2.42-3.5c1-1.25,1.65-2,2.07-2.5.55.27,2.29,1.24,7.71,4.83l.09.05c8,4.94,11.08,6,12.73,6.3a14.74,14.74,0,0,0,2.93.3,14.3,14.3,0,0,0,5.31-1,22,22,0,0,0,8.82-6.1c2.5-2.94,3.6-5.4,3.48-7.75a4.35,4.35,0,0,0-4.39-4.35,6.06,6.06,0,0,0-2.45.57l-1.65.69a10.55,10.55,0,0,1-3.89.74,12.21,12.21,0,0,1-2.81-.34,41.63,41.63,0,0,1-10.19-4.4c-2-1.14-3.28-1.93-4.08-2.47a65.31,65.31,0,0,1,6.64-7.88c5.46-5.78,9.91-10.14,13.21-13,3.49-3,5.14-6.45,4.93-10.24-.2-3.53-2.44-5.81-5.71-5.81a9.57,9.57,0,0,0-3.33.68c-2.7,1-7.54,4-18.34,18.59-2,2.69-5.52,7.16-10.79,13.66l-1.86,2.29c.6-7.21,1.48-14.68,2.62-22.32,2.43-16.29,2.58-20.56,2.47-22.36a8.1,8.1,0,0,0-2.13-5.4,5.56,5.56,0,0,0-4-1.74Z"/><path class="cls-6" d="M546.73,264a26.9,26.9,0,0,1-4.73-.41c-2.37-.43-9.56-1.74-9.81-6.4a9.5,9.5,0,0,1,.77-4.07,5.49,5.49,0,0,1,3-3.27,2.8,2.8,0,0,1,1-.2,3.45,3.45,0,0,1,2.08.76l.11.09a12.23,12.23,0,0,0,8.49,2.95,32.13,32.13,0,0,0,11.59-2.66c4.5-1.79,8.22-7,11-15.42s4.29-15.82,4.42-22.23a139,139,0,0,1-13.16,13.3c-4.93,4.25-8.68,6.84-11.46,7.92a12.87,12.87,0,0,1-4.62,1,7.58,7.58,0,0,1-5.32-2c-2.3-2.14-3.57-5.17-3.78-9-.27-4.89.52-11.39,2.34-19.32,2.46-10.73,3.67-13.56,4.37-14.76a10.84,10.84,0,0,1,5.91-4.61,4.32,4.32,0,0,1,1.48-.28,3.83,3.83,0,0,1,3,1.42,6.77,6.77,0,0,1,1.56,4.18,9.3,9.3,0,0,1-1.21,4.31c-2,4.26-2.48,5.3-2.57,5.55s-.28,1.14-1.72,6.35a30.9,30.9,0,0,0-1.3,9.7,16.21,16.21,0,0,0,1,4.06c.35,1,.67,1,.78,1a1.89,1.89,0,0,0,.66-.15,28.63,28.63,0,0,0,6.54-4,74.41,74.41,0,0,0,9-8.39,57.85,57.85,0,0,0,6.58-8,16.42,16.42,0,0,0,2.11-5.26c.38-1.87.52-5.85.41-11.84-.13-7,1.81-11.23,5.76-12.65a8.91,8.91,0,0,1,3-.61,3.48,3.48,0,0,1,2.69,1.08c.92,1,1.4,2.78,1.56,5.73.11,2,.08,4.68-.08,7.84-.18,3.87-.29,6.65-.3,8.26a163.79,163.79,0,0,1-2.45,26.61,89.7,89.7,0,0,1-7.8,24.74c-3.71,7.47-9.18,12.7-16.25,15.54A39.45,39.45,0,0,1,546.73,264Z"/><path class="cls-7" d="M584,172.78a1.77,1.77,0,0,1,1.38.5q.91,1,1.1,4.63.16,3-.08,7.66-.28,5.87-.31,8.33a161.18,161.18,0,0,1-2.43,26.33A87.51,87.51,0,0,1,576,244.48q-5.29,10.65-15.33,14.68a37.53,37.53,0,0,1-13.95,3,25,25,0,0,1-4.42-.38q-8.18-1.49-8.36-4.75a7.72,7.72,0,0,1,.65-3.31,3.8,3.8,0,0,1,2-2.29,1,1,0,0,1,.39-.07,1.73,1.73,0,0,1,1,.41,14,14,0,0,0,9.67,3.39,33.69,33.69,0,0,0,12.25-2.78q7.54-3,12.07-16.51t4.52-23.76a40.05,40.05,0,0,1,.21-4.05,153.39,153.39,0,0,1-16.31,17q-7.09,6.11-10.95,7.62a11.08,11.08,0,0,1-4,.85,5.83,5.83,0,0,1-4.12-1.57q-2.94-2.73-3.22-7.81-.39-7.11,2.3-18.83t4.18-14.27a9.09,9.09,0,0,1,5-3.84,2.53,2.53,0,0,1,.87-.17,2.1,2.1,0,0,1,1.62.81,5,5,0,0,1,1.13,3.12,8,8,0,0,1-1,3.44q-2.58,5.38-2.69,5.89t-1.71,6.31a32.49,32.49,0,0,0-1.36,10.27,18.23,18.23,0,0,0,1.12,4.54q.77,2.2,2.45,2.2a3.63,3.63,0,0,0,1.29-.27,30.13,30.13,0,0,0,7-4.24,75.77,75.77,0,0,0,9.2-8.59,59,59,0,0,0,6.8-8.26,18.13,18.13,0,0,0,2.33-5.82q.61-3,.44-12.23t4.59-10.95a7.3,7.3,0,0,1,2.35-.51m0-3.55a10.61,10.61,0,0,0-3.55.71c-4.75,1.7-7.09,6.53-6.94,14.35.13,7.29-.13,10.26-.37,11.46a14.67,14.67,0,0,1-1.88,4.68,54,54,0,0,1-6.36,7.68,72.7,72.7,0,0,1-8.76,8.19,30.72,30.72,0,0,1-5.41,3.45,13,13,0,0,1-.76-3.06,29.17,29.17,0,0,1,1.24-9.13c1.27-4.61,1.61-5.87,1.71-6.3s.62-1.46,2.47-5.3a10.87,10.87,0,0,0,1.38-5.17,8.5,8.5,0,0,0-2-5.25,5.65,5.65,0,0,0-4.3-2,6.08,6.08,0,0,0-2.09.38,12.56,12.56,0,0,0-6.84,5.39c-.82,1.41-2.08,4.42-4.57,15.26-1.88,8.21-2.66,14.69-2.39,19.82.23,4.32,1.7,7.76,4.34,10.22a9.43,9.43,0,0,0,6.53,2.52,14.63,14.63,0,0,0,5.27-1.09c3-1.15,6.89-3.85,12-8.23a124,124,0,0,0,9.86-9.64,84.57,84.57,0,0,1-4,16.65c-2.66,7.93-6,12.75-10,14.34a30.42,30.42,0,0,1-10.94,2.53,10.53,10.53,0,0,1-7.32-2.5l-.23-.18a5.18,5.18,0,0,0-3.14-1.12,4.57,4.57,0,0,0-1.7.33,7.2,7.2,0,0,0-3.95,4.26,11.24,11.24,0,0,0-.9,4.83c.33,6.06,8.56,7.56,11.26,8a28.73,28.73,0,0,0,5.05.44A41.2,41.2,0,0,0,562,262.46c7.49-3,13.27-8.52,17.18-16.4a91.47,91.47,0,0,0,8-25.23,165.52,165.52,0,0,0,2.48-26.91c0-1.55.12-4.31.3-8.18a79.8,79.8,0,0,0,.07-8c-.18-3.43-.78-5.48-2-6.83a5.2,5.2,0,0,0-4-1.66Z"/><path class="cls-6" d="M270.13,438.57c-1.32,0-4.44-.54-4.75-5.53a48.18,48.18,0,0,1,.39-7.68,197.18,197.18,0,0,0,.74-33.84,12.64,12.64,0,0,1,1.57-6c1.23-2.56,2.46-4.07,3.87-4.73a7.57,7.57,0,0,1,3.17-.82,3.93,3.93,0,0,1,2.68,1c1.23,1.11,1.89,3.37,2.14,7.31.22,3.45-.3,10.51-1.57,21.59.72-1.88,1.59-4.2,2.64-7.05,3.79-10.37,7.27-18.15,10.34-23.11,3.19-5.15,6.93-8.73,11.13-10.67a10.76,10.76,0,0,1,4.47-1.08,7.75,7.75,0,0,1,5.27,2c2.44,2.16,4.32,6.78,5.76,14.13,1.78,9.5,2.82,12.71,3.37,13.74.4.75.69.75.79.75a1.85,1.85,0,0,0,.76-.22,14.66,14.66,0,0,0,3.49-2.68,4,4,0,0,1,1.07-.81,4.4,4.4,0,0,1,1.89-.48c1.35,0,2.85.9,3,3.42.12,1.93-.87,4.24-3.1,7.27a20.78,20.78,0,0,1-7.82,6.51,10.75,10.75,0,0,1-4.58,1.19h0a6.44,6.44,0,0,1-4.32-1.59c-1.44-1.24-3.36-4.35-5.5-17.42-1.79-10.72-4-10.85-4.08-10.85a1.1,1.1,0,0,0-.43.12c-1,.46-2.65,1.79-4.86,5.49-1.91,3.2-4.78,9.87-8.55,19.83-6.82,18.42-9,22.61-10.07,24.16-1.78,2.63-3.27,4.18-4.68,4.87A9.78,9.78,0,0,1,270.13,438.57Z"/><path class="cls-7" d="M306.94,369.68a6,6,0,0,1,4.09,1.6q3.17,2.81,5.19,13.14,2.21,11.76,3.56,14.24a2.68,2.68,0,0,0,2.35,1.68,3.57,3.57,0,0,0,1.52-.39,16.63,16.63,0,0,0,3.95-3,2.69,2.69,0,0,1,.61-.49,2.73,2.73,0,0,1,1.13-.31q1.13,0,1.24,1.76.13,2.2-2.75,6.11a19,19,0,0,1-7.16,6,9,9,0,0,1-3.82,1,4.69,4.69,0,0,1-3.16-1.16q-2.6-2.25-4.91-16.37-2.06-12.33-5.83-12.34a2.8,2.8,0,0,0-1.18.28q-2.68,1.25-5.63,6.19t-8.68,20.11q-7.53,20.32-9.88,23.79t-4,4.27a8.19,8.19,0,0,1-3.45,1q-2.74,0-3-3.87a47.07,47.07,0,0,1,.38-7.38,198,198,0,0,0,.75-34.15,11.13,11.13,0,0,1,1.4-5.15q1.52-3.18,3-3.88a6,6,0,0,1,2.43-.66,2.14,2.14,0,0,1,1.49.53q1.24,1.12,1.56,6.11.33,5.19-1.74,22.81a57.54,57.54,0,0,0-.6,7.26q0,.66.32.66a.34.34,0,0,0,.15,0q.77-.37,6.38-15.65,5.66-15.47,10.19-22.79t10.36-10a9,9,0,0,1,3.73-.92m0-3.55h0a12.51,12.51,0,0,0-5.21,1.24c-4.52,2.08-8.52,5.9-11.89,11.34a113.07,113.07,0,0,0-8.38,17.81,67.54,67.54,0,0,0,.25-8.4c-.29-4.5-1.1-7.05-2.72-8.51a5.67,5.67,0,0,0-3.87-1.45,9.28,9.28,0,0,0-3.92,1c-1.81.84-3.31,2.61-4.72,5.57a14.29,14.29,0,0,0-1.74,6.91,195.38,195.38,0,0,1-.73,33.54,49.76,49.76,0,0,0-.4,8c.33,5.3,3.59,7.19,6.52,7.19a11.47,11.47,0,0,0,5-1.37c1.7-.83,3.4-2.57,5.37-5.47,1.1-1.62,3.37-5.94,10.27-24.55,3.72-9.83,6.55-16.41,8.4-19.52a15.51,15.51,0,0,1,3.51-4.43c.55.89,1.61,3.23,2.59,9.06,2.21,13.51,4.23,16.86,6.09,18.47a8.27,8.27,0,0,0,5.48,2,12.49,12.49,0,0,0,5.35-1.36,22.54,22.54,0,0,0,8.48-7.06c2.49-3.38,3.58-6.06,3.44-8.43-.21-3.52-2.56-5.09-4.78-5.09a6.12,6.12,0,0,0-2.64.65,5.69,5.69,0,0,0-1.56,1.15,17.69,17.69,0,0,1-2.46,2c-.44-1.16-1.38-4.31-3-12.67-1.54-7.88-3.55-12.68-6.33-15.14a9.6,9.6,0,0,0-6.44-2.49Z"/><path class="cls-6" d="M347.34,402.51a11.38,11.38,0,0,1-6-1.66c-3.78-2.31-5.86-6.35-6.21-12-.54-8.87,2-19.09,7.59-30.38s12.89-19.07,21.58-22.94a20.43,20.43,0,0,1,8.19-2,12.7,12.7,0,0,1,7.32,2.23c4.13,2.82,6.41,7.34,6.77,13.44.52,8.8-2.67,18.71-9.48,29.47S362.86,396.83,355,400.56a18,18,0,0,1-7.63,1.94Zm21.45-56.31a9.17,9.17,0,0,0-3.66.92c-5.1,2.29-9.41,7.45-12.79,15.33-3.45,8.07-5,15-4.68,20.64.17,2.84.88,4.84,2.1,5.94a2.64,2.64,0,0,0,1.85.74,5.32,5.32,0,0,0,2.2-.58c4.78-2.24,9.55-7.14,14.18-14.56s6.78-14.21,6.41-20.34c-.21-3.47-1.17-5.88-2.86-7.17A4.38,4.38,0,0,0,368.79,346.19Z"/><path class="cls-7" d="M372.49,335.33a10.91,10.91,0,0,1,6.32,1.92q5.51,3.76,6,12.08.75,12.71-9.21,28.41T354.21,399a16.2,16.2,0,0,1-6.87,1.77,9.59,9.59,0,0,1-5.08-1.4q-4.9-3-5.36-10.61-.78-12.87,7.41-29.49T365,337.13a18.6,18.6,0,0,1,7.47-1.8m-20.88,56.2a7,7,0,0,0,3-.75q7.68-3.6,14.93-15.23t6.68-21.38q-.36-6-3.56-8.48a6.14,6.14,0,0,0-3.83-1.28,10.84,10.84,0,0,0-4.38,1.07q-8.32,3.73-13.69,16.25t-4.82,21.45q.3,5,2.68,7.15a4.41,4.41,0,0,0,3,1.19m20.88-59.75a22.17,22.17,0,0,0-8.91,2.11c-9.09,4-16.64,12-22.46,23.77-5.71,11.58-8.33,22.1-7.77,31.28.38,6.28,2.76,10.8,7.05,13.42a13.14,13.14,0,0,0,6.93,1.92,19.75,19.75,0,0,0,8.39-2.12c8.2-3.87,15.89-11.46,22.87-22.53s10.29-21.34,9.75-30.51c-.4-6.67-2.93-11.65-7.54-14.8a14.44,14.44,0,0,0-8.32-2.54ZM351.61,388a.88.88,0,0,1-.66-.28c-.84-.75-1.37-2.43-1.51-4.73-.32-5.35,1.21-12,4.55-19.84,3.2-7.46,7.2-12.31,11.88-14.41a7.45,7.45,0,0,1,2.93-.76,2.59,2.59,0,0,1,1.68.55c1.27,1,2,2.94,2.17,5.87.34,5.75-1.72,12.24-6.14,19.29s-9,11.81-13.43,13.9a3.73,3.73,0,0,1-1.45.41Z"/><path class="cls-6" d="M408.52,373.92c-3.67,0-8.16-2-8.7-11.37-.2-3.49.35-9.05,1.7-17,1-6,1.46-9.35,1.65-11.2l-3.92,2.06-.11.05a12.08,12.08,0,0,1-4.75,1.24c-2.73,0-4.47-1.8-4.65-4.81-.16-2.63,1.24-4.72,3.94-5.91l10.66-4.67a2.48,2.48,0,0,0,1.05-1c.15-.24.71-1.44,1.86-6.72.86-4,1.6-7.85,2.22-11.57.73-4.39,2.63-7.25,5.63-8.53a7,7,0,0,1,2.71-.61,4.38,4.38,0,0,1,2.56.78,4.58,4.58,0,0,1,2.16,3.54c0,.39.05.91-1.5,8.2l-1.64,7.81c2.31-1.2,4.53-2.38,6.64-3.54,3.14-1.68,5.79-3,7.9-3.9,3.37-1.45,4.67-1.63,5.42-1.63a3.21,3.21,0,0,1,.66.07c.72.15,2.42.8,2.58,3.53.19,3.35-2,6.19-6.6,8.43-4.92,2.42-9.52,4.83-13.67,7.16a57.16,57.16,0,0,0-6.08,3.69c-.21.72-.77,3.27-2.23,12.19-1.62,9.89-1.87,13.64-1.79,15,.25,4.35,1.11,5,1.12,5a1.21,1.21,0,0,0,.69.17,5.47,5.47,0,0,0,2.18-.6c1.84-.84,5.3-3.46,11.33-11.23,2.15-2.88,3.82-4.53,5.23-5.17a4.67,4.67,0,0,1,1.91-.46c1.27,0,2.8.83,2.94,3.18.1,1.75-.52,5-7,13.3-4.72,6-9.76,10.27-15,12.67A17.22,17.22,0,0,1,408.52,373.92Z"/><path class="cls-7" d="M417.82,295.6a2.63,2.63,0,0,1,1.54.46,2.88,2.88,0,0,1,1.4,2.19A77.49,77.49,0,0,1,419.3,306l-2.41,11.46q5.31-2.7,10-5.26t7.74-3.82a15.31,15.31,0,0,1,4.72-1.49,1.45,1.45,0,0,1,.3,0q1.07.23,1.17,1.9.22,3.87-5.61,6.74-7.48,3.68-13.75,7.21T414.72,327q-.46.73-2.46,12.88t-1.81,15.43q.31,5.3,1.91,6.37a2.94,2.94,0,0,0,1.68.47,7.24,7.24,0,0,0,2.92-.76q4.44-2,12-11.75,2.9-3.9,4.56-4.64a3,3,0,0,1,1.18-.31q1.08,0,1.17,1.51.2,3.43-6.65,12.1t-14.32,12.15a15.69,15.69,0,0,1-6.35,1.7q-6.37,0-6.93-9.69-.29-5,1.68-16.61t1.8-13.64a.39.39,0,0,0-.44-.42,2.26,2.26,0,0,0-.84.23l-5.35,2.81a10.53,10.53,0,0,1-4,1.09q-2.69,0-2.88-3.14-.17-2.84,2.88-4.18l10.66-4.67a4.17,4.17,0,0,0,1.86-1.76q.77-1.28,2.07-7.26t2.23-11.66q.94-5.64,4.57-7.18a5.25,5.25,0,0,1,2-.47m0-3.55a8.76,8.76,0,0,0-3.4.75c-3.6,1.53-5.85,4.84-6.69,9.86-.61,3.71-1.35,7.57-2.2,11.49-1.07,4.93-1.57,6-1.66,6.21a1.15,1.15,0,0,1-.26.32L393,325.35c-3.38,1.49-5.2,4.27-5,7.64.23,3.93,2.75,6.48,6.42,6.48a13.76,13.76,0,0,0,5.47-1.39l.21-.1.9-.47c-.26,1.85-.65,4.36-1.21,7.76-1.37,8.08-1.93,13.77-1.72,17.4.66,11.34,6.85,13,10.47,13a18.92,18.92,0,0,0,7.84-2c5.47-2.51,10.73-6.95,15.63-13.18,5.38-6.82,7.59-11.16,7.4-14.5s-2.5-4.85-4.71-4.85a6.39,6.39,0,0,0-2.63.62c-1.73.77-3.56,2.54-5.93,5.73-6.1,7.85-9.28,10.06-10.64,10.67a6.28,6.28,0,0,1-1,.37,15.62,15.62,0,0,1-.48-3.42c-.06-1.08.08-4.41,1.77-14.65,1.2-7.31,1.78-10.24,2-11.41.67-.45,2.16-1.39,5.39-3.21,4.12-2.31,8.69-4.71,13.58-7.11,6.57-3.22,7.75-7.28,7.59-10.12-.23-4.07-3.11-5-4-5.17a5,5,0,0,0-1-.1c-1.39,0-3.22.53-6.12,1.77-2.16.93-4.86,2.26-8,4l-3.3,1.78.87-4.13c1.6-7.51,1.57-8,1.53-8.66a6.3,6.3,0,0,0-2.91-4.89,6.21,6.21,0,0,0-3.58-1.1Z"/><path class="cls-6" d="M455.28,352.4a11.15,11.15,0,0,1-5.12-1.16c-3.77-1.94-5.85-6-6.19-12-.53-9.37,2.41-19.84,8.75-31.13s13.79-18.78,22.05-22.24a12.16,12.16,0,0,1,4.64-1,7.47,7.47,0,0,1,3.31.74,6.68,6.68,0,0,1,3.76,6c.29,5.28-2.13,11.27-7.41,18.31a184.93,184.93,0,0,1-20.39,22.33c-1.31,1.23-2,2.33-2,3.1.14,2.57,1.11,3.32,1.83,3.66a3.36,3.36,0,0,0,1.45.28,11.82,11.82,0,0,0,4.54-1.22c7.06-3.13,14.25-10,21.35-20.46,1.36-1.91,2.34-2.88,3.27-3.29a3.51,3.51,0,0,1,1.39-.31c.63,0,2.69.25,2.87,3.49.2,3.69-2.7,9-9.12,16.73-6.13,7.4-12.7,12.71-19.53,15.77a23.84,23.84,0,0,1-9.5,2.42Zm19.09-55.18a3.58,3.58,0,0,0-.47.17c-2.83,1.19-6.05,4.64-9.59,10.25A53.44,53.44,0,0,0,458.58,320c13.19-13.86,16-19.89,15.81-22.5C474.38,297.38,474.37,297.29,474.36,297.21Z"/><path class="cls-7" d="M479.4,286.61a5.68,5.68,0,0,1,2.53.56,4.92,4.92,0,0,1,2.77,4.5q.4,7.21-7.06,17.14a182.38,182.38,0,0,1-20.19,22.11q-2.62,2.46-2.5,4.49.22,3.92,2.83,5.17A5.08,5.08,0,0,0,460,341a13.43,13.43,0,0,0,5.26-1.37q11.12-4.93,22.1-21.08a8.3,8.3,0,0,1,2.51-2.66,1.76,1.76,0,0,1,.69-.17q1,0,1.1,1.82.26,4.73-8.72,15.5t-18.89,15.28a22,22,0,0,1-8.78,2.27,9.35,9.35,0,0,1-4.31-1q-4.78-2.45-5.23-10.51Q445,325.59,454.26,309t21.19-21.47a10.38,10.38,0,0,1,4-.91m-24.13,39.32c14.19-14.27,21.16-23.75,20.89-28.54q-.11-2-1.54-2a3.78,3.78,0,0,0-1.42.35q-4.77,2-10.4,10.94a54.67,54.67,0,0,0-7.54,19.24m24.13-42.87h0a13.91,13.91,0,0,0-5.32,1.18c-8.64,3.62-16.35,11.36-22.92,23s-9.53,22.4-9,32.11c.38,6.69,2.78,11.22,7.15,13.46a12.9,12.9,0,0,0,5.94,1.35,25.2,25.2,0,0,0,10.23-2.58c7.07-3.17,13.86-8.64,20.17-16.25,6.82-8.19,9.76-13.73,9.53-18-.21-3.82-2.63-5.17-4.64-5.17a5.27,5.27,0,0,0-2.09.46c-1.27.55-2.42,1.66-4,3.85l0,.07c-6.92,10.17-13.85,16.84-20.61,19.83a9.92,9.92,0,0,1-3.82,1.07,1.7,1.7,0,0,1-.68-.11c-.47-.22-.74-.93-.82-2.11a4.77,4.77,0,0,1,1.39-1.76,186.9,186.9,0,0,0,20.6-22.57c5.54-7.38,8.08-13.75,7.76-19.46A8.47,8.47,0,0,0,483.5,284a9.22,9.22,0,0,0-4.09-.92Zm-14.88,27.68q.62-1.1,1.29-2.17a40.31,40.31,0,0,1,5.45-7.13,60.49,60.49,0,0,1-6.74,9.3Z"/><path class="cls-6" d="M500.4,333.66a4.48,4.48,0,0,1-4.8-4.61,6,6,0,0,1,2.34-4.83,15.94,15.94,0,0,1,4.23-2.8,20,20,0,0,1,3.3-.93,16.55,16.55,0,0,0,2.5-.65A69.88,69.88,0,0,0,519.89,313c4.3-3,6.18-5,7-6.35-.43-.39-1.9-1.17-6.76-1.32-7.42-.2-12.38-.75-15.16-1.7-4.13-1.4-5.14-4.29-5.26-6.47-.37-6.65,3-13.69,10-20.94s12.54-11.48,17.19-13.37a16.19,16.19,0,0,1,5.81-1.44,5.87,5.87,0,0,1,1.48.18c1.47.39,3.26,1.62,3.46,5.29A6.06,6.06,0,0,1,536,271.1a5.7,5.7,0,0,1-5.64,2.75,7.86,7.86,0,0,0-1.67.13c-1,.42-3.62,2.07-9.84,7.39s-7,8.21-6.91,9.48c0,.71.29,1.42,1.82,1.91,1.16.37,3.71.8,9.25.8h.54A30.78,30.78,0,0,1,533.79,295a7.08,7.08,0,0,1,5,6.66c.28,5.27-3.33,10.84-11,17A94.41,94.41,0,0,1,506.73,332a16.52,16.52,0,0,1-6.34,1.71Z"/><path class="cls-7" d="M532.7,263.18a4.1,4.1,0,0,1,1,.12q2,.52,2.14,3.67a4.36,4.36,0,0,1-1.25,3,4.07,4.07,0,0,1-4.28,2.12h-.09a7.67,7.67,0,0,0-2.22.25q-2.6,1.06-10.36,7.7t-7.53,10.92q.14,2.59,3.06,3.5t9.79.88h.56a28.89,28.89,0,0,1,9.63,1.32,5.33,5.33,0,0,1,3.85,5.08q.37,6.93-10.36,15.56a92.26,92.26,0,0,1-20.65,13,15.06,15.06,0,0,1-5.62,1.56,2.73,2.73,0,0,1-3-2.93,4.33,4.33,0,0,1,1.75-3.41,14.14,14.14,0,0,1,3.76-2.49,19.18,19.18,0,0,1,3-.82,18.48,18.48,0,0,0,2.82-.76,71.28,71.28,0,0,0,12.23-7q6.49-4.52,7.91-7.69-.16-3-8.65-3.22-10.78-.29-14.64-1.6t-4.06-4.88q-.51-9.23,9.52-19.61t16.58-13a14.71,14.71,0,0,1,5.14-1.31m0-3.55h0a17.83,17.83,0,0,0-6.48,1.57c-4.89,2-10.71,6.49-17.79,13.78-7.37,7.62-10.91,15.11-10.52,22.28.21,3.85,2.51,6.71,6.46,8,3,1,8.09,1.59,15.69,1.79a26.7,26.7,0,0,1,3.87.35,36.44,36.44,0,0,1-5.06,4.09,68.11,68.11,0,0,1-11.62,6.69,18,18,0,0,1-2.16.54,21.21,21.21,0,0,0-3.64,1,17.73,17.73,0,0,0-4.71,3.1,7.7,7.7,0,0,0-2.92,6.24,6.25,6.25,0,0,0,6.57,6.29,18.16,18.16,0,0,0,7.05-1.86A96.2,96.2,0,0,0,528.91,320c8.16-6.57,12-12.63,11.67-18.5a8.85,8.85,0,0,0-6.19-8.23,32,32,0,0,0-10.84-1.53H523c-5.6,0-7.87-.45-8.73-.72a2.14,2.14,0,0,1-.57-.25v-.06c0-.42.17-2.78,6.3-8s8.41-6.64,9.22-7c.16,0,.49,0,1.09-.06h.05a9.24,9.24,0,0,0,3.52-.49,9.47,9.47,0,0,0,3.47-2.89,7.76,7.76,0,0,0,2.08-5.46c-.28-5.18-3.43-6.56-4.78-6.92a7.67,7.67,0,0,0-1.94-.24Z"/><polygon class="cls-8" points="411.7 499.35 439.3 542.27 383.52 542.27 411.7 499.35"/><polygon class="cls-9" points="418.67 516.34 411.44 504.86 404.21 516.34 418.67 516.34"/><polygon class="cls-9" points="433.03 539.04 422.98 523.08 409.48 523.08 409.48 523.24 419.76 532.24 414.26 539.04 433.03 539.04"/><polygon class="cls-9" points="409.04 532.57 399.32 523.99 389.84 539.04 403.69 539.04 409.04 532.57"/></svg>